<svg version="1" xmlns="http://www.w3.org/2000/svg" width="844" height="844" viewBox="0 0 633.000000 633.000000"><path d="M332.7 30.4c-1.1 1.2-2.2 1.3-4.7.6-3.5-1-6.4-.1-7.3 2.4-.3.7-2.8 2-5.6 2.7-3.6.9-5.1 1.8-5.1 3 0 .9-.7 2.2-1.5 2.9-.9.7-1.5 3.5-1.7 7.3-.2 5-.7 6.3-2.3 7.2-12 6.1-24.6 15.6-33 24.9-6.5 7.1-13.4 18.8-11.5 19.4 1 .4-1.4 5.8-2.8 6.4-1.1.4-5 12.4-5.7 17.8-.3 2.5-.8 7.9-1 12-.2 4.1-.6 8.8-.9 10.5-.3 1.6-.6 4.3-.8 6-.1 1.6-.6 3.3-1.1 3.6-.5.4-.4 1.5.2 2.7.7 1.4.8 2.3.1 2.7-.5.3-1 1.4-1 2.3 0 1.5.2 1.5 1 .2.7-1.2 1-.8 1 1.5 0 2.2-.3 2.6-.9 1.6-.8-1.2-1.1-.9-1.6 1.2-.8 2.9 0 23.5 1 28.3.7 3 .6 3-3 2.6-7.4-.9-11.1 3.8-10.3 13.1.3 3.2 1.4 6.5 2.9 8.8 2.3 3.4 10.6 11 12.8 11.7 2.1.7 1.1-1.7-2-5-7.4-7.8-8.9-10.8-8.9-16.9 0-3.9.5-6.3 1.6-7.3 1.7-1.7 7.4-2.2 7.4-.6 0 .5-1 .9-2.1.7-2.3-.2-2.5.5-3.3 9.5-.2 3.1.1 3.9 1.8 4.4 1.8.6 1.9.8.4 1.3-1.3.5-.9 1.5 2.8 6.3 3.8 5 4.7 7.3 7.3 18 1.7 7 3.7 19.4 4.6 28.8.9 9.1 2.1 18.5 2.7 21 1.6 6.5 5.5 15.1 8.2 18 2.5 2.7 5 6.9 5.1 8.5 0 .5.5 1 1.1 1 1.6 0 7.4 6.4 7.4 8.1 0 .8.8 1.4 1.8 1.4s2.9 1.1 4.2 2.5c1.3 1.4 2 2.5 1.5 2.5-.4 0-1.4-.8-2.1-1.8-.7-.9-1.3-1.3-1.3-.7 0 1.5 3.9 5.9 4.6 5.1.3-.3 1.1.4 1.8 1.7.9 1.7.6 4.4-1.3 12.7-1.3 5.8-3 11.9-3.8 13.7-.8 1.7-1.4 3.7-1.4 4.5 0 4.1-3.7 11.2-8.6 16.7-4.9 5.4-14.8 13.1-16.8 13.1-.5 0-1.9.9-3.3 2s-3.4 2-4.4 2c-1.1 0-1.9.4-1.9 1 0 .5-.7 1-1.5 1s-1.5.4-1.5.9-2.1 1.8-4.7 2.9c-3.6 1.5-5.1 1.8-6.1.9-1-.8-1.5-.8-2 0-.4.6-2.4 1.4-4.5 1.8-2 .4-3.7 1.1-3.7 1.6 0 .4-1.5 1.2-3.2 1.8-4.3 1.3-11.8 3.9-14.3 5-1.1.5-4 1.7-6.4 2.6-4.2 1.5-4.5 1.5-5.4-.1-.7-1.3-1.1-1.4-1.8-.3-.4.8-.3 1.6.3 2 .6.4-.5 1-2.3 1.4-1.9.4-4.3 1.3-5.4 1.9-1.1.7-3.8 1.9-6 2.5-2.2.7-5.3 1.9-7 2.6-1.6.7-6.8 2.6-11.5 4.1-7 2.2-32.7 14.5-36.5 17.4-.5.4-2.6 1.7-4.6 2.8-6.7 3.7-8.3 4.7-12.3 7.5-2.1 1.5-4.5 2.7-5.3 2.7-.7 0-1.3.4-1.3 1 0 .5-.3.9-.7.8-.8-.3-4.2 2.3-7.2 5.4-.9.9-3.4 2.9-5.5 4.3s-6.2 4.7-9 7.3c-2.7 2.6-8.6 8-13.1 12.1-26.3 24.3-45.1 48.5-58.4 75.6-4 8.3-7.7 15.8-8.2 16.7-1.1 2.3-1.1 2.8.1 2.8.5 0 2.8-3.3 5.1-7.3 8.6-14.9 10.3-17.6 11.1-17 .5.3.8-.3.6-1.3-.2-1 .3-1.9 1-2 .6-.1 2.2-.3 3.5-.4 1.9-.2 1.9-.3-.6-.9-2.6-.6-2.7-.7-1.2-2.9 1.5-2 4.3-2.2 3-.2-.3.5 1.1 1.2 3.1 1.6 4.1.8 5.5-.5 5.2-4.6-.2-2.8.8-5 2.3-5 .5 0 .7 1.1.3 2.4-.7 3 2.1 4.3 4.6 2.1.9-.8 2.1-1.5 2.6-1.5s.3.4-.5.9c-1.8 1.2-.5 3.1 2.2 3.1 1.6 0 1.8-.3.9-1.2-1.7-1.7-1.5-5.5.4-6.2.9-.4 1.9-.4 2.2-.1.3.3 0 .5-.8.5-1 0-1 .4.1 1.7 1.2 1.4 1.2 1.6 0 .8-1-.6-1.2-.4-.6.4.4.7 1.6 1.1 2.6.8 1.3-.3 1.9 0 1.9 1 0 1.2.3 1.3 1.4.4 1.1-.9 1.5-.8 2 .5.4 1 .1 2.1-.6 2.5-.7.4-.9 1.1-.5 1.6.5.4 1.1.3 1.5-.3.4-.6 1.8-1.7 3-2.3 1.3-.7 2.1-1.5 1.8-1.8-.3-.3.4-1.4 1.6-2.4 2-1.8 2.2-1.8 3.4-.1 1.3 1.6 1.5 1.6 2.5-.1.5-.9 1.7-1.7 2.4-1.7.8 0 1.5-.6 1.5-1.3.1-.6 1-.1 2.2 1.3 1.3 1.5 2.3 2 2.5 1.3.2-.7 1.2-.9 2-.6 1.3.5 1.5.2 1-1.1-.4-1-.7-2.1-.7-2.4 0-.4-.5 0-1 .8-1.6 2.5-2.8-.2-1.4-3 .8-1.4 1.4-1.9 1.4-1.1 0 .8.6 1.1 1.5.7.8-.3 1.5-.1 1.5.4 0 .6.4 1 1 1 .5 0 .7-.7.4-1.5-.7-1.8 1.2-2 2-.3.4.7.4.3.2-1-.3-1.5.1-2.2 1.1-2.2.8 0 1.7-.9 2-2 .3-1.1.8-1.8 1.2-1.5.4.2 2.2-.9 3.9-2.5 1.7-1.6 3.4-2.5 3.7-2 .3.5.1 1.1-.5 1.5-.6.4-.7 1.2-.1 2.4 1.2 2.2-.2 4.6-2.4 3.8-1-.5-1.4-.3-.9.5.5.7 0 .9-1.4.6-2.3-.6-3.1.7-.9 1.5.9.4.9.7 0 1.8-1.9 1.9-1.6 2.9 1 2.9 2.2.1 5.7 2.1 5.7 3.4 0 .4-.4.5-.9.2s-2.2.1-3.7.9c-2.8 1.4-2.8 1.5-.5 1.5 1.6 0 2.1.4 1.7 1.5-.3.8-.1 1.5.4 1.5 1.4 0 1.2 3.7-.2 4.6-.6.4-1.6 0-2.3-.9-1-1.4-1.3-1.4-2.8.3-1.5 1.8-1.5 2 0 2.8 1 .6 1.3 1.4.7 2.3-.5.8-.9 1.7-.9 2.1 0 1.2-1.5 2.1-1.6 1-.1-.7-.2-1.7-.3-2.4 0-.6-.7-1.3-1.4-1.6-1.1-.3-1.2 0-.3 1.6 1.1 2.1 0 3.9-1.7 2.8-.5-.3-.6.9-.4 2.6.3 2.1.7 2.6 1.3 1.7.5-.8.9-1.1.9-.7 0 .4 1.3.3 3-.2 1.8-.5 3.2-.5 3.6.1.4.6 1.3.4 2.4-.6 1.6-1.5 1.8-1.5 2.4 0 .3.9 1 1.3 1.6 1 .6-.4.8-1 .5-1.5-.9-1.4 4.6-2.2 6.2-.8 1.2 1 1.4.9 1.2-.3-.4-2 1-5.9 2.2-5.9 1.2 0 1.2 1.7-.1 2.5-.5.3-1 1.1-1 1.7 0 .6.3.8.7.4.4-.3 1.3.4 2 1.6.7 1.3 1.2 1.7 1.3 1 0-.7.6-1 1.3-.7.6.4.4 0-.5-.8-1-.8-1.5-1.7-1.1-2 .3-.4 1.2-.2 2 .4 1 .9 1.3.7 1.3-.6 0-1.7.1-1.7 1.8-.2 1 1 2.3 1.3 3.1.8.9-.6.7-1-.8-1.4-1.2-.3-2.1-1.2-2.1-2 0-2.2 1.7-3 2.4-1.1.3.8 1 1.2 1.6.9.5-.3 1-.1 1 .6s.3.9.7.6c.3-.4 1.3-.1 2.1.6 1.3 1 1.5.9.9-1.1-.4-1.7-.2-2.2.7-1.9.7.3 1.8-.4 2.5-1.5s.8-1.7.2-1.3c-1.3.7-1.4-.5-.3-2.2 1-1.6 5.2-.5 5.2 1.3 0 .8-.6 1.1-1.5.8-1.8-.7-2 1.7-.3 3.5.7.8.8 1.1.3.8-.6-.3-1.7-.2-2.5.4-1.1.6 0 .9 3.5 1 2.8.1 5.3.1 5.8 0 2-.3.3 1.8-2.3 2.9-1.7.7-3.3 1.6-3.5 2-.6 1 2.1.7 3.1-.3.4-.4 1.4-.1 2.2.6 1.3 1 1.4.9.8-.2-1.1-1.7 1.5-3.5 2.6-1.8.5.8.8.7.8-.4 0-2.2 1.9-3.7 5.5-4.1 6-.9 11.4-4.8 6.5-4.8-1.7 0-1.9-.2-.8-1.4.8-.9 1.7-1.1 2.4-.5.8.6 1.4.4 1.8-.6.3-.8 1-1.5 1.7-1.5.6 0 .9.7.5 1.5-.3.8-.2 1.5.3 1.5s1.1-1.3 1.3-2.9c.3-1.8 0-2.8-.6-2.4-.5.4-.7-.1-.3-1.1.4-1 .7-2 .7-2.2 0-.2.5-.4 1-.4.6 0 1 .7 1 1.5s.4 1.5.9 1.5c.4 0 .7-1.1.6-2.4-.2-1.9.1-2.3 1.3-1.9 1 .4 1.3.2.8-.5-.4-.7-.2-1.2.4-1.2.6 0 1.5-1.1 2.1-2.4 1.1-2.3 3.9-2.6 3.9-.4 0 .5-.4.6-1 .3-.5-.3-1 .3-1 1.3 0 1.1-.7 2.2-1.5 2.6-.8.3-1.5 1.3-1.5 2.3-.1 2.3-2.3 5.3-4 5.3-.9 0-1.1 1.4-.8 5 .3 2.8.1 5.3-.3 5.6-.5.3-.3 1.1.4 1.8 1.4 1.6 3.1 1 2.1-.6-.5-.7-.2-.9.8-.5 1 .3 2.4-.5 3.8-2 1.6-1.9 1.8-2.4.6-2-.9.4-2.3 1-3.3 1.4-1.3.5-1.5.2-1-1.6.4-1.7.2-2.1-.9-1.7-.8.3-1.2.2-.9-.4.5-.9 6.9-.5 8.6.6.5.3.9 2.1.9 4s-.4 3.3-.8 3c-.4-.2-.8.4-.8 1.4 0 2.6 2.2 1.4 3.9-2.2l1.5-3.1 1.3 2.4c.7 1.3 1.2 2.8 1.1 3.3-.2.5.3.4 1.1-.2.8-.7 1.7-.9 2-.5.4.3.7-.1.7-1 0-1 .6-1.7 1.3-1.7.8 0 .7-.4-.3-1-2.2-1.4-3-1.2-2.4.5.7 1.7-1.1 2.1-2.1.4-.4-.6.3-2.1 1.5-3.4 1.4-1.5 1.8-2.5 1.1-3-.6-.3-1.1-1.1-1.1-1.7 0-.6.6-.6 1.5.2.9.7 1.4 2.2 1.3 3.3-.2 1.1.3 2.2 1 2.4 1.1.4 1.7-1.7 1.3-4.1-.1-.5.4-1.3 1.1-1.9 1-.6.9-.8-.4-.4-.9.3-1.9-.1-2.2-.9-.9-2.3-.7-2.7.8-2.1.8.3 1.7.1 2-.6.2-.7.5-.5.5.5.1.9.5 1.8 1 2 .4.2 1.1 1.3 1.5 2.5.6 1.9.4 2.2-1.1 1.6-1-.3-1.5-.3-1.1.2.4.4.3 1.4-.3 2.1-.9 1.1-.7 1.5.5 2 1 .4 1.5 1.3 1.2 2-.3.8-.1 1.4.4 1.4.6 0 1-.6 1-1.3 0-.8.3-.8.9.2.5.8 1.9 1.2 3.5.9 1.4-.3 2.6-.1 2.6.3 0 .5.7.9 1.5.9s1.5-.4 1.5-.9c0-1.3-2.7-2.1-4.8-1.5-1.4.5-1.4.3.2-1 1.2-.9 2.8-1.3 3.9-1 1.5.5 1.9.2 1.5-.8-.4-.8.1-1.4 1.2-1.4 1.1 0 1.7.7 1.6 2.1-.1 1.1-.8 1.9-1.5 1.7-.7-.1-1 .2-.6.8.3.5 1.5 1 2.7 1 1.3 0 1.8.5 1.5 1.4-.3.7.4 2.1 1.5 3.1 2 1.7 2.1 1.7 1.5-.4-.6-2.6.1-2.7 1.9-.4 1.2 1.7 1.3 1.6 1.4-.5 0-1.3.4-2.1.8-1.8.4.2 1.4.1 2.2-.4 1.1-.7 2-.3 3.3 1.3 1 1.2 1.6 1.6 1.2.9-.3-.6-.2-1.2.3-1.2 1.3 0 2.3-3.8 1.2-4.5-.5-.3-1 .1-1.3.7-.2.7-.8.1-1.2-1.4-1-3.8 1.4-8.4 4.2-8 1.2.2 2.4-.2 2.8-.8.3-.6 1.1-.8 1.6-.5.5.4 1.6-.1 2.5-.9 1.1-1.2 1.2-2 .5-3.5-.9-1.6-.8-1.8.7-1.4 1 .2 2.4-.3 3.1-1.1.9-1 2.2-1.4 3.7-1 2 .5 2.3.3 1.8-1.2-.5-1.3-.4-1.6.4-.9 1.5 1.5 2.1 9.7.5 9.1-.9-.4-1 .1-.2 2.1.8 2.2.7 2.4-.4 1.4-1.1-.9-1.7-.8-2.7.4-1 1.2-1 1.5.4 1.5 1.7 0 2.1 1.2.9 2.4-1.6 1.6-1.1 4.4 1 5.5 2.2 1.1 2.2 1.1-.3.7-2.4-.5-2.5-.3-2.6 3.7 0 2.5.6 4.6 1.5 5.3 1 .8 1.1 1.3.3 1.8-1.7 1-1.5 2.6.3 2.6.7 0 1.8.7 2.3 1.6.7 1.2 1.7 1.4 4.6.9 3.5-.7 3.6-.8 2-2.6s-1.6-1.9.8-1.9c1.3 0 3.4-.9 4.5-1.9 1.2-1.1 2.4-1.7 2.7-1.4.3.4.6-.6.6-2.1 0-1.8.4-2.5 1.2-2 .7.5.9.2.5-.9-.4-1.2-.2-1.4 1-1 1.1.4 1.4.3.9-.5-.9-1.5 4.4.7 5.7 2.3.5.6.6.2.3-.9-.4-1.1-.1-2.3.6-2.8 2-1.2 2.5-1 3.1 1.2.6 2.3 5.6 3.9 6.7 2.1.5-1 .9-.9 1.3.2.3.8 0 2.1-.6 2.8-.7.7-.2.5 1-.5 1.6-1.3 2-2.3 1.3-3.1-.5-.6-.7-1.5-.3-1.8.3-.4-.4-.7-1.7-.7-1.3 0-2-.3-1.7-.7.4-.3.1-1.3-.5-2.1-1.1-1.3-.8-1.4 2.1-.7 2.7.6 3.2.4 2.5-.6-.6-1-.3-1 1.1.1 1 .8 2.6 1.4 3.5 1.2 1.4-.2 1.7.4 1.3 3.3-.2 2.4 0 3.4.7 3 .5-.3 1.3.1 1.6 1 .4.9 1.3 1.4 2.1 1.1.8-.3 1.1-.1.8.5-.4.5-1.6.7-2.7.3-1.6-.5-1.8-.3-1.2.7.5.8.9 2.3.9 3.4 0 1.2.6 1.9 1.4 1.7.9-.2 1.2.4.8 1.7-.4 1.7-.2 1.8 1.4.8 1.1-.7 1.5-1.3.9-1.5-.5-.2-1-.9-1-1.6 0-.8 1-1.1 3-.8 2.3.3 3 0 3-1.2 0-.9.5-1.6 1.1-1.6.6 0 .9-.7.6-1.4-.4-1-.1-1.3.9-.9.7.3 1.4 1 1.4 1.5 0 .6.8.4 1.7-.3 1.4-1.2 1.6-1.2 1.1.2-.5 1.2.4 1.8 3.7 2.6 2.6.6 5 .6 6.2.1 1-.5.6 0-.9 1.2-3.6 2.8-3.6 4.6 0 4.4 1.5-.1 2.9-.3 3.1-.3.2-.1-.2-.8-.9-1.6-1-1.3-.9-1.5 1-1.5 1.7 0 2.1.4 1.7 2-.3 1.1-.1 2 .4 2 .9 0 1.3-1.5.9-3.9-.1-1.2.1-1.3 1.4-.2.8.7 1.2 2 .9 2.8-.4 1.1-.2 1.4.5.9.7-.4 1.2-1.5 1.2-2.5 0-1.3.9-2 3-2.3 3.7-.6 4.7 1.6 1.7 3.7-1.2.8-1.6 1.5-.9 1.5.6 0 1.2.8 1.2 1.7 0 1.6.1 1.6 1.3 0 1.5-2.1 4.8-1.8 7.9.9 2.3 1.9 2.3 1.9.8-.1-2.1-2.8-2-9.1.1-8.7 1 .1 1.9-.6 2.2-1.9.3-1.2 1-1.8 1.6-1.4.6.3 1.1.1 1.1-.4 0-1.5-3.7-1.4-4.3.1-.3.7-.6 0-.6-1.5-.1-2-.5-2.6-1.3-2.1-1 .5-1 .4-.1-.6.6-.7 2.3-1.2 3.7-1.2 1.6 0 2.6-.6 2.6-1.5 0-.7.6-1.6 1.4-1.9.9-.3 1.2-1.2.8-2.2-.5-1.5-.4-1.5 1.2-.3 1.2 1 1.4 1.6.5 2.2-.7.4-.9 1.4-.4 2.5.8 1.8.8 1.8 1.2.1.5-1.8 3-1.8 2.6 0-.1.6.8.8 2.1.6 1.3-.3 2.7 0 3 .6.9 1.5 4.6 1.4 4.6-.1 0-.6.2-.9.5-.6.7.6-1.5 6.8-2.4 6.8-.4 0-1.2-.5-1.9-1.2-.9-.9-1.2-.9-1.2 0 0 .7.4 1.2 1 1.2.5 0 .9.5.7 1.1-.1.6 1 1.2 2.5 1.3 1.4.1 2.4-.2 2.1-.7-.3-.5.3-.7 1.3-.5 1.1.2 1.8 1 1.6 1.7-.2.9.3 1.1 1.3.7.9-.3 1.9-.6 2.1-.6.2 0 .4-.5.4-1.1 0-.5-.4-.8-.9-.4-.5.3-1.2.1-1.6-.5-.4-.6.7-1 2.7-1.1 2.7 0 3-.2 1.3-.9-1.1-.5-1.4-.9-.7-.9.6-.1 1.2-.6 1.2-1.2s-.7-.8-1.6-.5c-.8.3-1.2.2-.9-.4.3-.6-.2-1-1.2-1.1-1.3-.1-1.1-.3.7-.9 2.2-.7 2.2-.8.5-1-1.1-.1-2.9-.2-4-.1-1.6.1-1.5-.1.5-1 2.5-1 2.5-1 .4-2.2-1.6-.9-1.9-1.7-1.3-3.2.4-1.1.8-1.4.8-.7.1.9.8 1.1 2 .7 1.3-.4 2.7.2 4.1 1.7l2.2 2.3-1.2-2.4c-1.1-2.2-1.1-2.3.8-1.9 1.3.4 2.3 0 2.6-.9.3-.8 1-1.1 1.6-.8 1.6 1 1.1 2.2-1.2 3-1.4.4-1.8.8-1 1.2.6.2 1.2 1.3 1.2 2.4 0 2.5 1.7 2.4 2.5-.1.8-2.4 2.1-2.6 2.9-.5.3.8-.6 2.6-2 4s-2.2 3-1.8 3.7c.5.8 1.1.6 1.9-.5 1.6-2.2 2-2.2 4 .9.9 1.5 1.2 2.3.6 2-.6-.4-1.1-.1-1.1.7 0 .7 1.1 2 2.5 2.7 1.4.7 2.5 2 2.5 2.8 0 1.2.3 1.2 1.5.2.9-.7 1.4-1.9 1.1-2.7-.3-.8-.2-1.2.2-.9.5.3 1.6-.4 2.5-1.4 1.2-1.5 1.3-2.1.4-2.7-.7-.4-1.9-1.7-2.7-2.8-.8-1.1-1.1-1.7-.6-1.3.5.4 1.4.1 2.1-.5 1.8-1.8 2.9-5.7 1.6-5.7-.6 0-1.1.7-1.1 1.5 0 2-1.5 1.9-4-.2-2.5-2.2-2.5-2.9.1-3.6 1.5-.4 1.9-.2 1.5.9-.4 1.1-.2 1.2 1.3.4 1.4-.7 2.2-.6 3.1.5.7.9 1 1.8.7 2.1-1 1.1 1.5 6.4 3 6.4 1.1 0 1.3.4.6 1.2-1.2 1.5.8 8.5 2.2 8 .4-.2 1.1.2 1.6 1 .7 1.1 1 1 2.1-.1 1-1.1 1-1.4 0-1.8-.6-.3-.9-1-.5-1.6.7-1.1 1.4-4.5 1.6-8 .1-1.1.7-1.6 1.7-1.2 1 .3.9 0-.4-.9-1-.8-1.6-2.2-1.3-3 .3-.8-.1-1.7-.9-2-1.6-.6-1.9-3.6-.4-3.6.6 0 1-.5 1-1 0-.6-1.1-1-2.5-1-1.6 0-2.5-.6-2.5-1.5 0-.8.5-1.5 1-1.5.6 0 1 .4 1 1 0 .5.4 1 1 1s.5-1-.2-2.5c-.6-1.4-1.5-2.5-1.9-2.5-.4 0-.6-.8-.4-1.8.2-.9.4-1.7.5-1.7.9 0 .6-4.3-.3-5.4-1-1.2-.9-1.4.7-.8 1.4.6 1.6.4.9-.5-.5-.7-1.3-2.2-1.7-3.3-.7-1.9-.7-1.9 1.2.1 2.8 2.9 3.7 6.4 2.1 7.5-1.2.8-1.1 1.1.1 1.9 1.4.9.7 1.4-1.3 1.1-1.4-.2 1.3 3.8 3.3 4.9 1.6.9 1.8.8 1.4-.5-.4-.8-1.2-1.5-2-1.5-1.7 0-1.8-1.7-.2-2.2.8-.3 1.2-1.9 1-4.1-.3-2.8 0-3.7 1.2-3.7 2.5 0 1.9-1.9-.9-2.6-2.6-.6-3.3-3.2-1.4-5.1.8-.8.8-1.3-.1-1.8-.7-.4-1.4.1-1.7 1.4-.3 1.4-1.3 2.1-2.9 2.1-3.1 0-3.1-.8.1-2 2.6-1 2.5-4-.2-4-.8 0-1.3-.6-1-1.3.2-.6 1.4-1.2 2.6-1.1 1.9.1 2-.1.6-1.6-.8-.9-1.5-2.4-1.5-3.3 0-.9-.4-1.7-1-1.7-.5 0-.7-.6-.4-1.3.6-1.7 5-1.4 4.6.3-.2.8.4 1.1 1.7.7 1.7-.4 1.8-.2.8 1.4-.6 1-1.6 1.9-2.2 1.9-.5 0 .1 1 1.5 2.1s1.9 1.8 1.3 1.4c-2.1-1-1.5 2.3.9 5 1.2 1.4 2.7 2.5 3.4 2.5.8 0 1.4 1.6 1.6 4.2.2 2.4.9 4.3 1.7 4.6.8.3 1.1 0 .7-.7-.4-.6-.3-1.1.3-1.1s.8-.7.4-1.6c-.5-1.4-.3-1.4 1.6-.3 2.5 1.6 2.7 2.9.6 2.9-2.5 0-.1 3.5 2.5 3.7 2.1.2 2.2.1.4-1.2-2.1-1.5-1.4-2.8 1.7-3 1.6-.1 1.9.3 1.5 1.8-.4 1.5-.1 1.8 1.5 1.4 1.4-.4 1.9 0 1.9 1.6s.3 1.8 1.2.9c.7-.7 1.8-1.2 2.5-1.2.8 0 .6.7-.7 2-1.1 1.1-2 2.4-2 3 0 1.3 2.7 1.3 3.5.1.8-1.4 4.5-.9 4.5.7 0 .7-.4 1.1-.8.8-.5-.3-1.4.4-2.2 1.4-.8 1-1.8 1.6-2.4 1.3-.6-.4-.6.1-.2 1.3.5 1 1 2.6 1.3 3.6.3.9 1.5 1.9 2.6 2.2 2.7.6 4.3.4 4-.7-.2-.4.5-.7 1.4-.7 1.2 0 1.4-.3.6-1.1-.8-.8-1.7-.8-3.3.1-1.7.9-2.5.9-3.4 0-.8-.9-.8-1.1.1-.8 1.1.3 1.3 0 1.3-2.8 0-.9-.5-1.2-1.2-.8-.7.4-.8.3-.4-.4.5-.8 1.3-.9 2.5-.2 1 .5 2.1.6 2.5.3.3-.3.6 0 .6.8s2.1 2.7 4.5 4.4c4.3 2.9 5.6 4.5 3.5 4.5-.5 0-1 .5-1 1.1 0 .6.8.8 1.9.4 2.2-.7 4 1.3 2.2 2.5-.9.5-.8 1 .3 1.9.9.7 2.1.9 2.8.5.7-.5 1.8-.9 2.3-.9.6-.1.9-.7.7-1.4-.1-.7.2-1 .8-.6 1.8 1.1 1.1 3.5-1 3.5-1.1 0-2 .4-2 1 0 .5.3 1 .8 1 .4 0 1.6 1.4 2.7 3 1.6 2.4 2.6 3 5 2.8 2.6-.3 3-.7 3.1-3.6.1-2.1-.3-3.2-1.2-3.2-.7 0-2-1.4-2.9-3-1.6-3.1-.6-4 2.4-2.1.9.6 2 .2 3.3-1.1 2-2 3.8-1.6 3.8.9 0 1.2-.3 1.3-1.3.4-.8-.6-1.7-.8-2-.4-1.2 1.1-.8 2.3.7 2.3.8 0 1.7.6 1.9 1.2.3.8.6.6.6-.4.1-1.1.6-1.5 1.6-1.2.8.4 1.5.1 1.5-.5s-.4-1.1-1-1.1c-.5 0-1-.6-1-1.4 0-1.9-1.9-2.5-5-1.6-2.9.8-5.3.2-4.4-1.1.3-.5-.1-.9-.9-.9-2.1 0-5-3.7-4.4-5.5.4-.8.1-1.5-.6-1.5s-.6-.4.3-1c1.3-.8 1.2-1.2-.7-2.5-3.1-2.2-2.9-3.2.8-3.3 2 0 2.9.3 2.6 1.2-.3.7.4 1.3 1.5 1.3 1.4.1 1.7-.2 1-1-.5-.7-.6-2.1-.1-3.2.6-1.7.8-1.7.8-.3.1 2.2 2 2.3 2.8.2.3-.9 1.3-1.4 2.4-1.1 1.2.3 1.6 0 1.2-.9-.3-.8-.1-1.4.5-1.4s1.2.6 1.5 1.2c.3 1 .7 1 2 0 1.3-1.1 1.7-1.1 2.4.1 1.1 2.1 4.7 2.5 6.6.8 1.1-.8 1.7-.9 1.7-.3 0 .6.6.9 1.4.6.8-.3 1.3-1.1 1-1.7-.2-.7.7-1.7 2.1-2.4 1.4-.6 2.5-.7 2.5-.2 0 .5-.4.9-1 .9-.5 0-1 .9-1 1.9 0 1.3-.8 2.1-2.2 2.3-2 .3-2.1.4-.5 2 1.9 1.9 2.2 3.8.6 3.8-.5 0-.7.5-.3 1.1.3.6 1.5.9 2.5.6 1.1-.3 1.7-.1 1.3.4-.3.5-.1.9.5.9.5 0 1.2-.4 1.6-1 .3-.5 1.2-.7 2-.3.8.3 1.5 0 1.5-.6s-.5-1.1-1.1-1.1c-.5 0-.7-.5-.3-1.2.5-.7.2-.9-.8-.6-.8.4-2-.3-2.7-1.5-1.1-1.7-1.1-2.1.2-2.9.9-.5 2.2-1.5 3-2.3 2.2-2.1 4.2.3 2.1 2.6-1 1.1-1.2 1.9-.5 2.3.5.4 1.5-.3 2.2-1.5.8-1.6 1.3-1.9 1.9-.9.5.8 1.9 1.5 3.1 1.7 1.9.3 2.1.1 1.1-.9-1.9-1.9-1.4-3.1.9-2.5 2.5.7 5.1-.2 4.3-1.4-.3-.5-.1-.9.5-.9.5 0 1.2.6 1.4 1.2.4.8.6.7.6-.4.1-.9-.6-2.4-1.5-3.2-1.4-1.5-1.4-1.6.6-1.6 1.7 0 1.9-.2.8-1.4-1.1-1.1-1.8-1-4.5.8-2.3 1.5-2.9 2.4-2.1 3.3.7.9.7 1.3 0 1.3-.6 0-1.7.3-2.5.6-.9.3-2.8-.7-4.6-2.5-2.5-2.4-3.8-3-5.9-2.6l-2.7.5 2.5-1.1c1.4-.7 2.8-1.1 3.2-1.1.4.1.5-.5.2-1.3-.4-1 0-1.5 1.5-1.5 1.2 0 2.1.5 2.1 1.1 0 .6.7.9 1.5.5.9-.3 1.5 0 1.5.9s.8.6 2.5-1c1.3-1.4 2.9-2.5 3.5-2.5.6 0 1.8-.6 2.6-1.4.7-.8 1.9-1.6 2.6-1.9 2-.7-3.3-4.5-5.4-3.9-1.7.4-1.7.6-.3 2.8 2 3.1.8 3.1-2.1-.1-1.3-1.4-1.8-2.5-1.3-2.5.6 0 1.7-.7 2.5-1.5 1.4-1.3 1.1-1.5-2.1-1.5-2.6 0-3.4-.3-2.9-1.2.4-.7-.1-.6-1.2.3-2.4 2-5.1 1.4-3.3-.7.9-1.1.8-1.4-.5-1.4-.9 0-1.6.4-1.6 1 0 .5-.7 1-1.5 1-1.7 0-1.8-1.4-.5-4.5l.9-2 .1 2 .1 2 .8-2c.5-1.1.7-3 .6-4.2-.3-3 .9-2.9 2.3.2.9 2 .8 2.6-.6 3.5-1.5 1-1.4 1.1.5.7 1.2-.3 2.4-.2 2.6.2.2.3.2.1.1-.6-.2-.7.1-1.5.7-1.9.7-.4.6-1-.1-1.9-.8-.9-.8-1.5 0-2 1-.6 1.2 0 1.4 3.7.1 1 .4 1.8.9 1.8 2.8.1 2.9-.1 1.7-1.5-.7-.8-.9-1.5-.5-1.5s0-1.1-.9-2.5c-2-3.1-2-3.4.3-2.8 1.2.3 1.7 1.1 1.4 1.9-.7 1.8.5 1.8 2.4-.1 2.4-2.5 3.4-.6 1.1 2-2 2.4-3.3 7-1.7 5.9.4-.2 1.5.6 2.3 1.8 1.4 1.9 1.6 2 2.2.5.6-1.6.8-1.5 2.5.4 1 1.1 2.2 1.9 2.6 1.6.5-.3.9.3.9 1.3s-.4 1.6-.8 1.4c-.4-.3-.8-.2-.8.3 0 1.4 7 8.7 7.7 8 .3-.4.1-.7-.5-.7-.7 0-1.2-.5-1.2-1 0-1.6 1.4-1.2 3.8 1 1.2 1.1 2.6 2 3.2 2 .6 0 .8.5.5 1-.4.6-1.2.7-1.8.3-.7-.4-.6.1.2 1.1 1.3 1.5 1.3 1.9 0 2.7-1.2.7-1.1.9.2.9 1.5 0 3.3 3.2 3 5.3-.1.4.8.3 1.9-.3 1.7-.9 2-.8 2 1 0 1.2.4 1.8 1 1.5.6-.3.7.1.4.9-.4.9-.1 1.6.6 1.6s1 .7.6 1.5c-.4 1.3-.2 1.4 1.4.5 1.6-.9 2-.8 2 .5 0 1.1.6 1.5 1.9 1 1.1-.3 2.4.1 3.2 1.2.8.9.9 1.4.2 1-.6-.4-1.4-.3-1.7.1-.7 1.1 3.5 3.1 5.2 2.5 1-.4 1-.8 0-2-1.1-1.4-1-1.5 1.2-.8s2.3.6 1.1-.9c-1-1.2-1-1.6-.1-1.6 1 0 1-.3.1-1.4-.7-.8-2.4-1.3-4.1-1.1-2.2.3-2.8 0-2.3-1.1.3-.7 0-1.4-.7-1.4-.6 0-.8-.5-.5-1 .4-.6 1.5-.8 2.5-.5 1 .3 2.1.1 2.5-.5.3-.5 1.5-1 2.6-1s1.9-.6 1.8-1.3c-.3-1.9 1.2-4.8 2.2-4.1.5.3.9-.2.9-1.1 0-1.3.2-1.4 1.4-.3.8.7 1.2 1.6.9 2.1-.2.4.3 1 1.1 1.3.9.3 1.6 1 1.6 1.6 0 .5.7 1.6 1.5 2.4 2.2 2.2 1.8 3.5-.8 3-2.1-.4-2.3 0-2.3 2.9 0 1.8.4 3.1.8 2.9.5-.3.8-1.2.8-2s.5-1.4 1-1.4c.6 0 1 1 1 2.2 0 1.8.2 2 .9.9.5-.8.7-1.9.5-2.5-.3-.7.2-2 1-3.1 1.3-1.7 1.5-1.7 1.6-.4 0 .9.7 1.9 1.5 2.3.8.3 1.5 1.3 1.5 2.2 0 1.4-.3 1.4-1.7.4-1-.7-.2.2 1.7 1.9 3.6 3.2 5 3.8 5 2 0-.5-.6-.7-1.2-.3-1 .5-1 .4-.2-.5 1-1 1.9-.9 4.7.4 3.8 1.8 5.7 1.4 5.7-1.1 0-.8-.4-1.3-.9-.9-.5.3-1.2.1-1.5-.4-.4-.5-.1-1.3.5-1.6.5-.4.8-1.3.5-2.1-.3-.8.1-1.4.8-1.4.8 0 1.2-.9 1.1-2.4-.2-1.4.3-2.7 1-3 .9-.3 1.1.2.8 1.7-.5 2.2-.5 2.2 1 .2 1.4-1.9 1.6-1.9 3.4-.2 1.1.9 2.5 1.7 3.2 1.7.7 0 1 .4.6.9-.3.5.4 2.8 1.6 5 2.1 4.1 3.9 6 3.9 4.2 0-.5-.6-1.2-1.2-1.4-1-.4-1-.6-.1-.6.7-.1 1-.8.7-1.6-.8-1.9.1-1.9 2.1.1 1.2 1.2 1.3 1.9.4 3s-.8 1.5.2 1.8c.8.2 2.2.7 3.2 1 1.9.6 2.4-1.8.6-3-.8-.5-.8-.9.1-1.4.9-.6.9-1.3 0-3.1-1-1.7-1-2.4-.1-2.7 2-.7 1.2-2.5-.9-1.9-1.6.4-2 0-2.1-2.1-.1-1.5-.1-3.1 0-3.6.1-.4-.4-1.4-1-2.2-.9-1.1-.8-1.4.2-1.4 1.2 0 1.2-.2 0-.9-.8-.5-1-1.4-.6-2.1 1-1.7 7.6 10.8 6.9 13.1-.3 1.1.1 1.6 1.1 1.5 1.5-.1 4.3 4.7 11.9 20.1 5.9 11.8 7.4 10.7 2-1.5-1.3-2.9-2.3-5.5-2.3-5.8.1-1.1-24.7-50.3-27.6-54.9-3.4-5.3-11.3-14.2-23.1-25.9-8.7-8.7-11.4-11-15.4-13.1-1.7-.9-3.4-2.3-3.7-3.1-.3-.8-2.1-2.1-3.9-2.9-2-.8-3.4-2.1-3.4-3.1s-.3-1.5-.6-1.1c-.9.8-7.3-1.9-9.9-4.2-2.1-1.9-16.1-9.8-31-17.6-14.9-7.8-21.9-11.8-23.3-13.2-.7-.7-2.2-1.3-3.3-1.3-1.1 0-3.2-.6-4.7-1.4-1.6-.8-5.9-2.4-9.7-3.7-3.9-1.2-13-4.6-20.3-7.5-7.4-3-14.1-5.4-15-5.4-.9 0-2.6-.7-3.6-1.5-1.1-.8-3.6-1.5-5.6-1.5-2.6 0-6-1.4-11.7-4.9-15.5-9.4-23.4-15.2-24.4-17.9-.6-1.5-1.6-3.4-2.3-4.2-.8-.8-1.9-4.2-2.5-7.5-.6-3.3-2.2-11-3.5-17-3.5-15.3-3.5-15.3 2.8-21.9 3-3.1 5.7-5.6 6.1-5.6.7 0 5.4-5.4 7-8.1.6-.9 3.5-4.9 6.5-9 9.1-12.1 9.5-13.6 15-44.4.4-2.8 1.4-6.3 2-8 .6-1.6 1.3-6.1 1.5-10 .9-15.6 1.3-17 5.1-18.4 3.8-1.4 14.4-12.4 16.8-17.5 2.9-6.2 1.4-16.2-2.8-19-2.2-1.4-2.8-1.4-6-.1-4.7 2-4.8 1.9-4.2-1.3 1.4-6.9 2.2-47.2 1.1-56.2-2.8-24-4.6-30.9-12.4-47.3-2.2-4.8-4.1-9.2-4.1-9.7s-.6-1.3-1.4-1.7c-.8-.4-4.6-3.8-8.6-7.6-3.9-3.7-7.9-6.7-8.8-6.7-1 0-2.9-1.2-4.3-2.8-1.5-1.5-6.2-4.5-10.5-6.6-7.8-3.8-9.7-5.3-8.8-6.7 1.1-1.8-2-6.1-7.3-10.1-3.2-2.4-6.4-4.9-7.1-5.5-3.4-3.2-10.2-6.4-13.4-6.2-1.8.1-4.3-.1-5.4-.5-1.4-.4-2.7-.1-3.7.8zm-6.4 2.3c-.7.2-1.9.2-2.5 0-.7-.3-.2-.5 1.2-.5s1.9.2 1.3.5zm10.4-.1c-.3.3-1.2.4-1.9.1-.8-.3-.5-.6.6-.6 1.1-.1 1.7.2 1.3.5zm29.7 15c.3.8.2 1.2-.4.9-.6-.3-1-1-1-1.6 0-1.4.7-1.1 1.4.7zM390 70.5c1 1.2 1 1.5-.3 1.5-.8 0-2-.7-2.7-1.5-1-1.2-1-1.5.3-1.5.8 0 2 .7 2.7 1.5zm5.5 3.5c.3.5-.1 1-.9 1-.9 0-1.6-.5-1.6-1 0-.6.4-1 .9-1 .6 0 1.3.4 1.6 1zM379 78.5c0 .7-.7 1.5-1.5 1.9-1.3.5-1.5-.5-.6-4.2.2-.9 2.1 1.1 2.1 2.3zm-3.5 6.5c-.3.5-1.2 1-1.8 1-.7 0-.6-.4.3-1 1.9-1.2 2.3-1.2 1.5 0zm25.3 12.1c.2.5 1.1.9 2 .9 1.8 0 4.2 4.2 4.2 7.2 0 1 .6 1.8 1.4 1.8 1.3 0 2.3 3.2 3.2 11 .2 1.9 1 8.4 1.7 14.5 1 7.8 1 11.2.3 11.7-.8.6-.8.8 0 .8.7 0 1.1 5.7 1 18.2-.1 14.4.4 21.3 2.2 32.5 2.4 15 2.3 19.3-.9 41.8-1.2 8.1-3.9 14.8-3.9 9.5 0-4.8-1.8-.4-2.4 5.9-.4 3.5-1.1 7.2-1.7 8.2-.5 1.1-.7 2.4-.4 3 .4.5.2 1.5-.3 2.2-.8 1-2.6 8.3-2.7 11.2 0 .5-.3 1.2-.6 1.5-.3.3-1 3-1.5 6l-.9 5.5-2.3-2.3c-1.5-1.5-2.2-3.1-1.9-4.3.6-2.1-.1-2.4-2.3-.9-1.1.7-1.2 1-.2 1 .9 0 1.1.7.7 1.9-.4 1.4 0 2.1 1.5 2.6 1.1.3 2 1.4 2 2.3-.1 1.5-.2 1.5-1.5-.2-.8-1.1-1.8-1.7-2.1-1.3-.4.4-.1 1.3.5 2.1.8.9.8 1.6.2 2-.6.4-.9 1.2-.7 1.9.1.7.1.9-.1.5-.3-.5-1.2-.4-2.2.1-.9.5-2.5.9-3.6.8-1.4-.2-2.1.6-2.6 2.8-.4 1.9-.7 2.3-.8 1-.1-1.7-.3-1.8-1.1-.5s-1 1.2-1-.3c0-3.6-2.8-1.6-3.5 2.5-.8 4.2-.8 4.3-1.5 1.3-.3-1.7-.3-3.6 0-4.4.4-.7.1-2.9-.6-4.9-.6-2-1.1-5.8-1-8.4 0-2.7-.3-4.8-.9-4.8-.5 0-.9-1.9-.8-4.2 0-2.4-.5-5-1.2-5.8-3.7-4.2-11.1-11-12-11-.3 0-.5.9-.5 2 0 1.4.6 2 1.6 1.8 1-.2 1.9.2 2.1.8.6 1.7-3 1.2-4.3-.5-.6-.8-1.6-1.1-2.2-.7-.6.3-1.3.2-1.7-.4-.4-.6-1.2-.5-2.1.5-.9.8-2.1 1.5-2.7 1.5-.8 0-.7-.3.2-.9.9-.6 1-1.1.2-1.5-.6-.4-1.6-.4-2.3 0-.6.4-.8.3-.5-.3.4-.6-.3-1.3-1.4-1.6-1.5-.4-1.9-.2-1.5.9.3.8.1 1.4-.5 1.4s-.9-1.2-.7-2.7c.2-1.5-.2-2.8-.9-3-.7-.3-1.3 0-1.3.6 0 2.4-1.9.9-2.2-1.7l-.4-2.7-1.4 2.7c-1.5 3.1-3.3 3.8-2.8 1.1.4-2.3 3.9-3.9 11.7-5.5 7.6-1.5 8.9-2.4 9.7-6.4.5-2.6.3-3.1-1.3-2.9-1.1 0-3 1-4.2 2.2-2 1.9-6.9 3.2-12.5 3.4-1 0-1.6.3-1.3.6.4.3-.1 1.2-.9 2-2 2-6.9.9-12.3-3-2.5-1.7-6.5-3.6-9-4.3l-4.6-1.1v-4.7c0-2.5-.3-4.6-.6-4.6-3.4 0-4.5 10.6-1.5 13.9 3.1 3.4 18.4 10.1 23.3 10.1 1.6 0 2 .5 1.6 2-.8 2.9-2.1 3.4-4.8 1.6-2.2-1.5-2.5-1.4-3.5.2-.7 1.1-1 1.2-.7.2.2-.8-.3-2.1-1-2.8-1.1-1.1-1.7-1.1-2.8-.2-1.2 1-1.5.9-1.5-.9 0-2.9-1.6-2.7-2.4.3-.3 1.4-1.4 2.7-2.4 3-1.1.4-2.5 1.8-3.3 3.2-1.7 3.3-4.7 5-6.2 3.5-1.6-1.6-4.4-1.4-7.3.6-1.5.9-4 1.7-5.7 1.7-3.7.1-5.8 3.4-6.7 10.5-.3 2.7-1.1 4.6-2 4.9-.8.3-1.2.1-.8-.3.4-.5.3-1.4-.3-2.1-.6-.7-1.2-3-1.5-5-.5-4.2-2.1-5.9-4.1-4.2-1 .8-1.3.7-1.3-.3 0-.8-.6-.5-1.5.7-1.3 1.6-1.4 1.6-.9.1.4-1 .1-1.7-.6-1.7-.6 0-.8-.5-.4-1.1.3-.6 0-1.5-.7-2-1.1-.7-1.1-.9-.1-.9.9 0 1.1-.7.7-1.9-.3-1.1.1-2.6 1-3.5.9-.9 1.2-1.6.7-1.6-.6 0-1.8-.3-2.8-.7-1-.3-1.5-.2-1.2.3.9 1.4-.6 8.9-1.7 8.6-.5-.1-.8-1.6-.7-3.2.4-3-1.9-6.5-3.3-5.2-.4.4-.2-.4.5-1.7 1.1-2.2 1.1-2.3-.9-1.8-2.5.6-2.6 0-.7-7 1.5-5.6.5-8.3-1.3-3.6-.9 2.6-1 2.4-.6-1.4.2-2.4-.1-4.5-.6-4.9-.5-.3-.9.9-.9 2.6 0 1.9-.4 2.9-1 2.5-.6-.4-.8-1-.6-1.4.3-.4-.4-3.1-1.4-6-2.5-6.4-2.5-10.9 0-29.1 1-8 2.2-17.9 2.5-22 .4-4.1 1-10.1 1.4-13.3.4-3.1.6-6.9.4-8.5-.7-5.1-.6-9.7.2-15.7.5-3.3.9-6.7 1-7.5.1-.8.4-3.1.8-5 .5-2.9 1.3-9.4 1.9-15.8.1-.6.5-1.2.9-1.2s.5-1.5.2-3.3c-.3-2.3 0-3.7 1.1-4.6 1.1-1 1.3-1.8.6-3.1-.8-1.5-.6-2 .9-2.5 1-.3 2.1-1.5 2.4-2.7.4-1.4 1.1-1.9 2.1-1.5.9.4 1.6.2 1.6-.3 0-1.4 4.6-1.2 6.2.2.7.7 2.4 1.4 3.7 1.6 1.4.1 3.3 1 4.3 1.9 1 .9 2.1 1.4 2.4 1.1.3-.3 2.9.1 5.7.9 2.9.8 8.3 2.1 12.2 2.9 3.8.9 7.5 2.3 8.2 3.2.9 1.2 1.5 1.4 2 .6.5-.7 5.4-1 14.1-.9 7.3.2 13.5-.1 13.8-.6.3-.5 1.8-.9 3.3-.9 1.6 0 3.4-.6 4-1.4.7-.8 2-1.2 3-.9 1 .2 2.4-.1 3.2-.9.8-.7 4.8-2.4 8.9-3.8 4.1-1.3 8.6-3.2 10-4.1 3.9-2.6 10.1-4.1 11.7-2.7 1 .8 1.3.7 1.3-.5 0-.8.6-1.8 1.3-2 1.5-.7 5.1.3 5.5 1.4zm14.7 0c1 3 .2 3.2-1.2.3-.6-1.3-.7-2.4-.3-2.4.5 0 1.2.9 1.5 2.1zm-110.2 7.6c2.3 1.3 0 1.8-4.2.9-5.7-1.1-5.9-3-.3-2 2 .4 4 .9 4.5 1.1zm4.3 1c-1 1-1.9-.5-1-1.8.6-1.1.8-1.1 1.2 0 .2.7.1 1.5-.2 1.8zm-53.7 14.7c-.6 2.1-.8 4.9-.5 6.2.4 1.4.2 2.4-.4 2.4-.5 0-1 .5-1 1.1 0 .5.5.7 1.1.3.8-.4.9.6.5 3.2-.3 2.2-.5 4-.6 4.2 0 .2-.6.2-1.2 0-1.4-.5-1.3-4.8.3-14.3 1.1-5.9 1.8-8 2.5-7.3.2.2-.1 2.1-.7 4.2zm-1.9 21.8c0 1.6-.3 1.9-1.1 1.1-.6-.6-.8-1.6-.5-2.2 1.1-1.7 1.6-1.3 1.6 1.1zm171.7 2c-.3.8-.6.5-.6-.6-.1-1.1.2-1.7.5-1.3.3.3.4 1.2.1 1.9zM252 158.5c0 3.2-.4 5.5-1.1 5.5-.6 0-.8-1.6-.5-4.3.2-2.3.5-4.8.5-5.5.1-.6.3-1.2.6-1.2s.5 2.5.5 5.5zm166.7 8.7c-.3.7-.5.2-.5-1.2s.2-1.9.5-1.3c.2.7.2 1.9 0 2.5zm-166.7-.3c0 1.1-.4 2.3-1 2.6-.6.4-1-.5-1-1.9s.5-2.6 1-2.6c.6 0 1 .9 1 1.9zm5.6 10.7c-.4.9-.9 1.5-1.1 1.2-.3-.3-.3-1.3.1-2.2.4-.9.9-1.5 1.1-1.2.3.3.3 1.3-.1 2.2zm-.9 6.6c-.3.7-.5.2-.5-1.2s.2-1.9.5-1.3c.2.7.2 1.9 0 2.5zm-4.7 13.7c0 2.7-1.7 3.5-2.3 1.1-.5-1.9 0-3 1.5-3 .4 0 .8.9.8 1.9zm184 9.8c0 4-.7 6.6-2.5 9.6-3.1 5.4-12.5 14.7-12.5 12.5 0-.9.9-1.9 1.9-2.3 1.2-.4 2.5-2.6 3.7-6.4 1.5-4.7 2.1-5.5 3-4.3 2 2.7 3.4.3 3.1-5.3-.2-4.4-.4-5.1-1.6-4.2-1.1 1-1.3.8-.7-1.1.6-1.7.4-2.1-.8-1.6-.9.3-1.6.2-1.6-.4 0-1.3 5-3.1 6.8-2.4.7.2 1.2 2.4 1.2 5.9zm-190 1.9c0 .8-.5 1.2-1 .9-.6-.4-.8-1.1-.5-1.6.9-1.4 1.5-1.1 1.5.7zm4.7 6.6c-.3.7-.5.2-.5-1.2s.2-1.9.5-1.3c.2.7.2 1.9 0 2.5zm14.4 49.1c-.8.8-1.1.7-1.1-.4 0-2 1.3-3.4 1.8-1.9.3.7-.1 1.7-.7 2.3zm7.5 7.1c.1 1.4-.5 2.7-1.5 3-.9.3-2.3.9-3.1 1.3-1.1.5-1 0 .4-2.1 1.7-2.7 1.7-2.8-.3-2.1-2.8.9-2.7-.3.2-1.5 3.5-1.4 4.2-1.2 4.3 1.4zM321 275c-.6 1.2-1.4 1.9-1.7 1.7-.2-.3.1-1.5.7-2.7.6-1.2 1.4-1.9 1.7-1.7.2.3-.1 1.5-.7 2.7zm12.6 3c.8 0 1.4.4 1.4 1 0 .5.5 1 1.1 1 .5 0 .7-.5.4-1-.3-.6-.2-1 .4-1 .5 0 1.3.4 1.6 1 .3.5 1.1 1 1.7 1 .6 0 .5-.7-.3-1.8-1.1-1.4-1.1-1.5.1-.5.8.7 2.3 1.3 3.4 1.3 1.4 0 .8.6-1.9 2-2.2 1.1-4.5 1.8-5.2 1.6-.7-.3-1.5-.1-1.7.3-.9 1.5-10.3 1.8-17.9.6-5.3-.9-7.3-2.5-3-2.5 1.6 0 3.9-.8 5.2-1.7 1.4-.9 2.1-1.1 1.7-.5-.4.7-.4 1.7-.1 2.2 1 1.6 4.3-.6 6-4.1.9-1.6 2-2.7 2.5-2.4.6.4 1 0 1.1-.7 0-.7.5-.1 1.1 1.4.5 1.6 1.6 2.8 2.4 2.8zm15.8-1.4c2.5.9 1 2.2-2 1.6-1.9-.3-2.2-.7-1.2-1.3 1.6-1.1 1.3-1 3.2-.3zm-77.3 3.5c-.9 2.2-1 2.2-1 .3-.1-1.1.2-2.4.6-2.7 1.2-1.2 1.4 0 .4 2.4zm137.3-1.6c-.4.8-.8 1.5-1 1.5-.2 0-.4-.7-.4-1.5s.4-1.5 1-1.5c.5 0 .7.7.4 1.5zm-54.4 1.7c0 .7-1.5 2.1-3.3 3.1l-3.2 1.9 3-3.1c3.4-3.5 3.5-3.5 3.5-1.9zm-50 .8c0 .5-.2 1-.4 1-.3 0-.8-.5-1.1-1-.3-.6-.1-1 .4-1 .6 0 1.1.4 1.1 1zm4.7-.4c-.3.3-1.2.4-1.9.1-.8-.3-.5-.6.6-.6 1.1-.1 1.7.2 1.3.5zm49.5 1.1c.8 1 2.2 3.7 3.3 6 1.4 3.4 1.5 4.5.5 5.8-1.6 1.9-.3 12 2.2 17.1.7 1.6.6 2.9-.6 5.3-1 1.8-1.5 4.6-1.2 6.7.2 2.6-.2 4.2-1.5 5.5-1.1 1.1-1.9 2.3-1.9 2.9 0 .5-.5 1-1.1 1-.6 0-.9-.9-.6-2 .3-1.1.1-2-.4-2s-1.2 1.9-1.5 4.2c-.7 3.8-.8 4-2.1 2.2-.8-1-1.2-2.9-1-4.2.2-1.2 0-2.2-.4-2.2-.9 0-1.3 1.4-1 3.6.1.7-.6 1.5-1.5 1.8-1.2.4-1.5.2-1-.9.3-.8.1-1.5-.4-1.5s-.8-.6-.6-1.3c.1-.6.1-.9-.1-.5-.3.5-1.1.8-1.8.8-.8 0-1.9.9-2.5 2-.6 1.1-1.6 1.7-2.2 1.4-.7-.5-.6-1.1.5-1.8 1.5-1.2 2-4.9 1.8-13.1-.1-3-.4-3.6-1.1-2.5-.5.8-1 2.8-1.1 4.5l-.1 3-1-2.8c-.7-2.1-.7-3.2.1-4 .6-.6 1.1-2.2 1.2-3.7 0-2 .2-2.2.8-.7.6 1.7.8 1.7 1.8-.5.6-1.3 1.4-3.1 1.7-4.1.3-1 1-1.6 1.5-1.2 1.9 1.1 2.1-1.6.3-3.6-1.2-1.2-1.8-2.9-1.5-4 .5-1.7.3-1.8-2.2-.9-2.3.9-2.6.8-2.1-.5s.2-1.4-1.5-.4c-2.5 1.3-5.3.4-4.6-1.6.8-1.9-2.2-.8-4.4 1.7-.9 1-1.9 1.5-2.2 1.2-.3-.3-1.1.3-1.8 1.4-.7 1.1-1.8 1.8-2.4 1.5-.7-.2-1.5.6-1.8 1.8-.4 1.6-1.1 2-2.6 1.6-2.3-.6-2.4-.5-1.5 1.7.3.9.9 1.4 1.3 1.1.4-.2.8.2.8 1.1 0 1.2-.3 1.2-2.1 0-1.2-.7-2.1-1.9-2.1-2.5 0-.6-.3-1.1-.7-1.1h-2.5c-1.5 0-1.4.2.3 1.6 1 .8 1.3 1.3.7.9-.8-.4-1.3 0-1.3 1 0 3.4 5.4 6.4 6.8 3.8 1.1-1.9 3.6-.7 2.8 1.3-.3.7-.1 1.6.4 1.9.6.4 1 .1 1-.5 0-.7.6-.8 1.9 0 2.9 1.5 3 6.6.3 12.7-1.3 2.9-2.1 5.7-1.8 6.2.4.5.2 1.2-.4 1.6-.6.4-1.3-.7-1.6-2.4-.4-1.7-1-2.8-1.5-2.5-.5.3-1.2-.9-1.6-2.8l-.6-3.3-1.1 4.5c-.6 2.5-1.5 4.3-2.1 4-.5-.3-.9-.9-.7-1.4.2-.5-.4-.6-1.1-.3-2.3.9-3.7-1.4-3.7-5.8-.1-3.2-.3-3.7-1.1-2.2-.5.9-.8 2.1-.5 2.6.3.5 0 1.4-.7 2-1.1.8-1.3.4-.9-1.9.3-1.8 0-3-.7-3-1 0-1.5 1.6-1.4 4.7.1.7-.3 1-.8.7-1.5-.9-1-6.2.9-8 1.6-1.7 1.6-1.7-.3-1.2-2.3.6-5.8-2.3-3.7-3 .7-.2 1.2-.8 1.2-1.3 0-.6-.4-.7-1-.4-.5.3-1-.1-1-.9 0-.9.5-1.6 1-1.6.6 0 .9-1.5.9-3.3-.2-3-.2-3-.6-.5-.2 1.6-1.1 2.8-1.9 2.8-1.7 0-1.7.2.1-4.9 1.4-4.1 1.4-4.2-.7-3.5-1.8.5-2 .3-1.4-1.7 1.9-6.3 2.3-9 1.5-9.5-1.2-.7-1.1-4.4.1-4.4.7 0 .7-.6 0-1.9-1.5-2.9-1.3-3.3 1.3-2.5 1.2.4 2.9.7 3.7.8.8.1 3.6 1.3 6.2 2.8 2.6 1.6 5.9 2.8 7.5 2.9l2.8.1-2.5.8c-1.5.5-1.8.8-.8.9.9.1 2.4.4 3.4.8 1.2.4 1.5.3 1-.5-.5-.9.9-1.2 5.1-1.1 3.2.1 4.9.4 3.9.6-1.3.4-1.5.7-.7 1.3 1.6.9 6.2 0 5.5-1.1-.3-.5 1-1.6 3-2.4 4.4-1.9 5.5-1.9 3.1-.1-1.1.8-2.3 1.2-2.7 1-.5-.3-.8 0-.8.5 0 1.4 1.7 1.4 2.5.1.3-.6 1.6-1 2.8-1.1 3.3-.1 10.1-4.1 11.2-6.7 1.2-2.7 1.7-2.7 3.7-.5zm-20.9 3c-.7.2-1.9.2-2.5 0-.7-.3-.2-.5 1.2-.5s1.9.2 1.3.5zm-4.6.9c-.3.3-1.2.4-1.9.1-.8-.3-.5-.6.6-.6 1.1-.1 1.7.2 1.3.5zm-38 8.6c-.3.8-.6.5-.6-.6-.1-1.1.2-1.7.5-1.3.3.3.4 1.2.1 1.9zm69.3 5.5c0 3.2-.5 2.8-1.4-1-.4-1.9-.3-2.6.4-2.2.5.3 1 1.8 1 3.2zm25.9 1.6c.1.5-.3.5-.9.2-.5-.3-1-1.6-.9-2.8 0-2.1.1-2.1.9-.2.5 1.1.9 2.4.9 2.8zm5.1-1.9c0 .3-.4.8-1 1.1-.5.3-1 .1-1-.4 0-.6.5-1.1 1-1.1.6 0 1 .2 1 .4zm-104.6 3.1c.3.8.1 1.5-.4 1.5-.6 0-1-.7-1-1.5s.2-1.5.4-1.5.6.7 1 1.5zm1.6 3.5c0 .5-.2 1-.4 1-.3 0-.8-.5-1.1-1-.3-.6-.1-1 .4-1 .6 0 1.1.4 1.1 1zm91.8 2.5c-.3.3-.9-.2-1.2-1.2-.6-1.4-.5-1.5.5-.6.7.7 1 1.5.7 1.8zm-93.1 9.7c-.3.8-.6.5-.6-.6-.1-1.1.2-1.7.5-1.3.3.3.4 1.2.1 1.9zm77 1c-.3.8-.6.5-.6-.6-.1-1.1.2-1.7.5-1.3.3.3.4 1.2.1 1.9zm-31.1 3.2c0 1.3-.4 2.2-.8 2-.9-.6-.6-4.4.3-4.4.4 0 .6 1.1.5 2.4zm4.4 4.7c-.6 1.1-1.5 1.7-2.1 1.4-.5-.4-.5-1.4.1-2.6.6-1.1 1.5-1.7 2.1-1.4.5.4.5 1.4-.1 2.6zm29.3-1.6c.4.8.2 1.7-.3 2-.6.4-1-.3-1-1.4 0-2.5.6-2.7 1.3-.6zm-50.8 7.5c.3.5.1 1-.4 1-.6 0-1.1-.5-1.1-1 0-.6.2-1 .4-1 .3 0 .8.4 1.1 1zm-7.1 3.1c-.8 1.3-2.4.1-2.4-1.8 0-1.3.3-1.3 1.5-.3.8.7 1.2 1.6.9 2.1zM340 335c0 .5-.5 1-1.1 1-.5 0-.7-.5-.4-1 .3-.6.8-1 1.1-1 .2 0 .4.4.4 1zm-15.6 2.5c.3-.3.2 0-.3.6-1.2 1.4-4.5.3-3.6-1.1.5-.8 1.1-.8 1.9-.1.7.6 1.6.9 2 .6zm47.3 16.7c-.3.7-.5.2-.5-1.2s.2-1.9.5-1.3c.2.7.2 1.9 0 2.5zm-45.7-.8c0 1.1-1.9 1.5-2.5.6-.3-.5.1-1 .9-1 .9 0 1.6.2 1.6.4zm16 2.6c0 .5-.4 1-1 1-.5 0-1-.5-1-1 0-.6.5-1 1-1 .6 0 1 .4 1 1zm12.3.7c-.7.2-1.9.2-2.5 0-.7-.3-.2-.5 1.2-.5s1.9.2 1.3.5zm-5.3 2.4c0 .5-.6.9-1.4.9-1.8 0-2.9 1.6-2.1 3 .4.7 1.2.7 2.5 0 1.4-.8 2.1-.6 2.8.6.7 1.3 1.7 1.5 4.3 1 1.9-.4 4.2-.7 5.1-.7 1 0 1.5-.7 1.3-1.8-.2-1 .3-1.8 1.1-1.8s1.4.5 1.4 1.1c0 .6.5.4 1-.4.8-1.3 1-1.2 1 .2 0 1-.5 1.8-1.2 1.8-.6 0-.2.9 1 2 2.3 2.1 3 3.6 1.2 2.5-2-1.3-.9 1.4 1.2 2.9 1.2.9 1.9 1.9 1.5 2.2-.4.4-.2 1.3.4 2 .6.7 1.2 3.7 1.4 6.6.2 2.9.6 6 .8 6.8.9 3.9 1.9 6 2.8 6 .6 0 .7.4.4 1-.3.5.1 1 .9 1 1 0 1.3-.6.9-1.7s-.3-1.4.5-.9c.7.4 1.2.3 1.2-.3 0-.5-.6-1.4-1.2-1.8-.7-.4-1.3-1.8-1.4-3 0-1.2.3-2 .7-1.7 1 .6 0-6.4-1.4-9.9-.7-1.5-1.5-2.7-2-2.7-.6 0-.1-6 .7-6.7.2-.2 1.1 2.3 2 5.4.9 3.2 2.6 7.7 3.7 10.1 1 2.3 1.9 5.1 1.9 6 0 1 .5 2.3 1.1 2.9 1.4 1.4-.5 5.3-2.7 5.3-.8 0-1.3.4-1 .9.4.5-1.8 2.4-4.6 4.1-2.9 1.8-6.4 4.2-7.7 5.4l-2.3 2.1 2.1-3.9c1.8-3.1 1.9-3.7.6-3.2-.9.3-1.8 0-2-.7-.3-.6-1.6-1.3-3-1.3-1.9-.2-2.5.4-3 2.7-.4 1.6-1.3 2.9-2.1 2.9s-1.4.7-1.4 1.5c0 1.8-4.3 3-6.7 1.9-1-.4-2.1-.6-2.5-.6-.5.1-.8-.2-.8-.8 0-.6-.7-1-1.6-1-.8 0-1.3.4-1 .8.3.5-1 1.4-2.9 1.9-2.8.9-3.7.8-5.4-.9-1.2-1-2.1-2.5-2.1-3.3 0-1.8-2-2-2-.3 0 .7-.7.4-1.6-.7-1.2-1.6-1.7-1.7-2.3-.7-.7 1.1-.9 1.1-1.4-.2-.5-1.1-.1-1.6 1.3-1.6 1.2 0 2-.7 2-1.6 0-1.2-.6-1.5-2.5-1-2.6.7-4.5-1.5-4.5-5.2 0-1.1-.7-2.2-1.5-2.6-.8-.3-1.5-1.1-1.5-1.7 0-.8.4-.8 1.5.1 1.2 1 1.5 1 1.6-.1 0-1 .2-1.1.6-.2.2.7 1.1 1.3 1.9 1.3 1.7 0 1.6-.3.5 3.8-.6 2-.6 3.2 0 3.2.9 0 1.3-1.4 1-3.8-.1-.6.2-1.2.7-1.2.6 0 1.3-.7 1.6-1.6.4-1 .2-1.3-.6-.8-.7.4-.8.3-.4-.4s1.4-1.2 2.2-1.2c.8 0 1.4-.6 1.4-1.4 0-.8.4-1.7.9-2 .5-.4.7.3.4 1.5-1.5 5.4 6.1-3.5 9.5-11.3.2-.5-.3-.8-1.2-.8-.9 0-1.6.6-1.6 1.3 0 2.7-3.9 6-7.6 6.3-2.8.3-3.5 0-3-1.1.3-.8.1-1.5-.3-1.5-.5 0-1.2-.7-1.5-1.6-.3-.8-.2-1.3.3-1 .4.3 1.8-.9 3.1-2.7 1.3-1.8 1.7-2.6.9-2-1.3 1.1-1.6.8-1.6-2 0-1.7.2-2.6.5-1.9.6 1.8 2.2.4 2.2-1.9 0-1 .6-1.9 1.3-1.9.9 0 .9-.2-.1-.9-1.9-1.1 1.3-1.9 6.2-1.6 3.3.3 3.5.2 2.5-1.6-.5-1.1-1.4-1.7-2-1.4-.5.4-.9.2-.9-.3 0-.4 2.3-.9 5-.9 2.8 0 5 .3 5 .8zm-26 8.3c0 1.1-1.9 1.5-2.5.6-.3-.5.1-1 .9-1 .9 0 1.6.2 1.6.4zm2 9c0 .3-.4.8-1 1.1-.5.3-1 .1-1-.4 0-.6.5-1.1 1-1.1.6 0 1 .2 1 .4zm.5 10.2c-.9.9-2.3 1.3-3.2.9-1.5-.5-1.5-.7-.3-1.5.8-.6 2.3-1 3.3-1 1.7 0 1.7.1.2 1.6zm40.3 17.9c-.3.3-.9-.2-1.2-1.2-.6-1.4-.5-1.5.5-.6.7.7 1 1.5.7 1.8zm-61.3.5c-.3.5-1.1 1-1.6 1-.6 0-.7-.5-.4-1 .3-.6 1.1-1 1.6-1 .6 0 .7.4.4 1zm-44 7.8c-.8.8-2.5-1-2.5-2.6 0-1.3.2-1.3 1.4.4.8 1 1.3 2.1 1.1 2.2zm78 .1c1.1.5 2.5.4 3.2-.1.8-.6 1.1-.4.9.9-.3 2.1-3.3 3-4.9 1.4-.6-.6-2-1.1-3.1-1.1-1.7 0-1.8-.2-.6-1 1.7-1.1 1.8-1.1 4.5-.1zm13 1.4c-2.5 1.7-7.5 2-7.5.6 0-.7 1.1-.9 2.5-.7 1.4.3 2.8.1 3.1-.3.3-.5 1.3-.9 2.2-.9 1.4 0 1.3.2-.3 1.3zM264 425c0 .5-.5 1-1.1 1-.5 0-.7-.5-.4-1 .3-.6.8-1 1.1-1 .2 0 .4.4.4 1zm-85 14.4c0 1.1-1.9 1.5-2.5.6-.3-.5.1-1 .9-1 .9 0 1.6.2 1.6.4zm159.4 19.7c-.3.5-1 .7-1.5.3-.5-.3-.7-1-.3-1.5.3-.5 1-.7 1.5-.3.5.3.7 1 .3 1.5zM520 461c0 .5-.5 1-1.1 1-.5 0-.7-.5-.4-1 .3-.6.8-1 1.1-1 .2 0 .4.4.4 1zm-182.5 7c.3.6-.1.7-.9.4-1.8-.7-2.1-1.4-.7-1.4.6 0 1.3.4 1.6 1zm216.4 15.9c-.6.2-1.5-.3-2-1-1.5-2.4-1-2.9 1.1-1.1 1.2 1 1.6 1.8.9 2.1zm-8.9.5c0 .3-.4.8-1 1.1-.5.3-1 .1-1-.4 0-.6.5-1.1 1-1.1.6 0 1 .2 1 .4zm-449.9 4.9c-1 .9-1.1.8-.5-.6.3-1 .9-1.5 1.2-1.2.3.3 0 1.1-.7 1.8zM559 489c0 .5-.4 1-1 1-.5 0-1-.5-1-1 0-.6.5-1 1-1 .6 0 1 .4 1 1zm7 .9c0 .9-2.4 2.1-4.1 2.1-.5 0-.9-.7-.9-1.5 0-.9.9-1.5 2.5-1.5 1.4 0 2.5.4 2.5.9zM91.5 492c.3.5.1 1-.4 1-.6 0-1.1-.5-1.1-1 0-.6.2-1 .4-1 .3 0 .8.4 1.1 1zm475.2 4.2c-.3.8-.6.5-.6-.6-.1-1.1.2-1.7.5-1.3.3.3.4 1.2.1 1.9zm5 1c-.3.8-.6.5-.6-.6-.1-1.1.2-1.7.5-1.3.3.3.4 1.2.1 1.9zM456 509.1c0 .4.3 1.5.7 2.5.4 1.2.3 1.5-.5 1-.7-.4-1.2-1.6-1.2-2.7 0-1-.6-1.8-1.2-1.7-.7.2-1.2-.3-1-1 .1-.6-.2-1.2-.8-1.2-.5 0-1 .5-1 1.1 0 2.5-2.5-1.8-2.7-4.6l-.1-3 3.9 4.5c2.1 2.4 3.9 4.7 3.9 5.1zm-56-1.8c0 .5-.4.5-1 .2-.5-.3-1-1.4-1-2.3 0-1.5.2-1.5 1-.2.5.8 1 1.9 1 2.3zm4-1.9c0 .3-.4.8-1 1.1-.5.3-1 .1-1-.4 0-.6.5-1.1 1-1.1.6 0 1 .2 1 .4zm123.5 5.4c-.8.8-2.5-1-1.9-2 .4-.6.9-.5 1.5.3.4.7.6 1.5.4 1.7zm-86.5-1.3c0 .2-1 1-2.2 1.6-2.1 1.1-2.2 1.1-.9-.4 1.3-1.6 3.1-2.3 3.1-1.2zm143.3.9c.4 1 .1 1.3-.9.9-.7-.3-1.4-.9-1.4-1.4 0-1.4 1.7-1 2.3.5zm-513.6 1.1c0 .8-.4 1.5-.9 1.5-1 0-1.1-1.4-.1-2.3.9-1 1-.9 1 .8zm329.8.4c.7 1.2-1.2 2.4-2.5 1.6-1.1-.7-.4-2.5 1-2.5.5 0 1.1.4 1.5.9zm99.7.8c.2-.1-.5.6-1.6 1.6-1.7 1.6-2.1 1.6-2.8.2-1.3-2.2-.1-3.7 2.1-2.5 1 .5 2 .8 2.3.7zm87.3-.7c.3.5.1 1-.4 1-.6 0-1.1-.5-1.1-1 0-.6.2-1 .4-1 .3 0 .8.4 1.1 1zm-97.2 1.6c-.4 1-4.3 2.8-4.3 1.9 0-.2-.2-1-.5-1.8-.4-1 .2-1.4 2.4-1.4 1.9 0 2.7.5 2.4 1.3zm-6.8 1.2c-.3.3-1.1 0-1.8-.7-.9-1-.8-1.1.6-.5 1 .3 1.5.9 1.2 1.2zm-73.1.7c-.7 1.6-1.4 1.8-3.8.9-2.2-.9-1-2.4 1.9-2.4 1.8 0 2.3.4 1.9 1.5zm46.6-.5c0 .5-.2 1-.4 1-.3 0-.8-.5-1.1-1-.3-.6-.1-1 .4-1 .6 0 1.1.4 1.1 1zm49 0c1.2.7 1 .9-.8.7-1.2 0-2.2-.5-2.2-.9 0-1.1 1.2-1 3 .2zm-141.5 2.1c-.4.5-1.4 1.3-2.4 1.8-1.3.7-1.8.6-1.8-.4 0-.7.6-1.1 1.4-.8.7.3 1.3-.2 1.3-1.2 0-.9.5-1.3 1-1 .6.4.8 1.1.5 1.6zm17.5-1.7c0 .2-.8 1-1.7 1.7-1.6 1.3-1.7 1.2-.4-.4 1.3-1.6 2.1-2.1 2.1-1.3zm18.4 1.2c.4 1 1.3 1.3 2.7.9 2-.7 2-.6.2 1.4-1.9 2.3-2.8 2.8-1.7.9.5-.8 0-.9-1.4-.6-1.2.4-2 .2-1.7-.2.3-.5.1-1.1-.5-1.5-1.1-.7-.4-2.5 1-2.5.4 0 1.1.7 1.4 1.6zm80 2.7c-.3.9-1.2 1.3-2.1 1-1.4-.5-1.3-.8.2-2 2.2-1.5 2.8-1.2 1.9 1zM65 518.4c0 1.1-1.9 1.5-2.5.6-.3-.5.1-1 .9-1 .9 0 1.6.2 1.6.4zm528.2 1.3c2.2 2 2.4 4.5.3 3.7-.8-.4-1.2-1-.9-1.5.3-.5-.2-.6-1-.3-1 .4-1.4 0-1.3-1.5.2-2.5.5-2.6 2.9-.4zm-185.2 1c0-.9.5-1.7 1.1-1.7 1.9 0 .3 2.5-2.5 3.8-2.9 1.5-5.1.7-2.6-.8.8-.6 1.1-1 .7-1-.5 0-.5-.5-.1-1.2.5-.7 1.1-.5 2.1.7 1.2 1.7 1.3 1.7 1.3.2zm-100.8 2.6c-.4 1.5-.7 1.7-1 .7-.3-.8-.9-2-1.4-2.7-.6-.8-.4-1 1-.6 1.4.3 1.8 1.1 1.4 2.6zm157.2 2.4c1.5 2.7 1.8 3.9.8 2.8-.9-1.1-2.4-2-3.2-1.9-.8 0-2.3-.4-3.3-.9-1.8-.8-1.8-1-.1-2.8.9-1 2.1-1.9 2.5-1.9.4 0 1.9 2.1 3.3 4.7zm27.1-3.8c.3.5.1 1.2-.5 1.6-.5.3-1-.1-1-.9 0-1.8.6-2.1 1.5-.7zM262 523.4c0 .3-.4.8-1 1.1-.5.3-1 .1-1-.4 0-.6.5-1.1 1-1.1.6 0 1 .2 1 .4zm149.6 2.1c.3 1.4 1 2.2 1.5 1.9.5-.3.9.1.9.9 0 1.2-.5 1.3-2.2.4-1.4-.6-2.3-1.9-2.3-3.4 0-3 1.3-3 2.1.2zm103.2.3c.2.7-.2 1-1.2.6-.9-.3-1.6-1.1-1.6-1.6 0-1.3 2.3-.5 2.8 1zM108 529.3c0 .5-.4.5-1 .2-.5-.3-1-1.4-1-2.3 0-1.5.2-1.5 1-.2.5.8 1 1.9 1 2.3zm247.8-.2c-.3.8-.7.3-1.1-1-.4-1.7-.3-2.1.5-1.3.5.5.8 1.6.6 2.3zm241.7-2.1c-.3.5-.2 1 .3 1 .6 0 1.2.7 1.6 1.5.3.9 0 1.5-.8 1.5-1.4 0-2.8-3.5-1.8-4.4.9-1 1.4-.7.7.4zm-495.8 3.2c-.3.8-.6.5-.6-.6-.1-1.1.2-1.7.5-1.3.3.3.4 1.2.1 1.9zM255 529c0 1.3-1.1 1.3-3 0-1.2-.8-1.1-1 .8-1 1.2 0 2.2.4 2.2 1zm95.3 2.3c-.3.5-.9.3-1.4-.4-.4-.7-.5-1.7-.2-2.2.3-.5.9-.3 1.4.4.4.7.5 1.7.2 2.2zM529 529c0 .5-.8 1-1.7 1-1.5 0-1.6-.2-.3-1 1.9-1.2 2-1.2 2 0zm-261.3 2.2c-.3.8-.6.5-.6-.6-.1-1.1.2-1.7.5-1.3.3.3.4 1.2.1 1.9zm22.7-.4c-.4 5-.3 4.8-2.1 3-1.5-1.6-1.7-1.6-3 0-.8.9-.7.3.3-1.4 1.6-3 5-4.1 4.8-1.6zm3.6 1.4c0 1.8-.2 2-.9.8-.6-.8-.7-1.8-.5-2.2.9-1.4 1.4-.9 1.4 1.4zm244.5.2c0 2-.3 2.2-1.8 1.4-1.5-.7-1.6-1.2-.6-2.4 1.7-2 2.4-1.7 2.4 1zm-120.2-.7c.4.3.2 1.2-.5 2-.6.7-.8 1.6-.5 1.9.6.6-1.6 3.4-2.7 3.4-.3 0-.6-.7-.6-1.5s-.4-1.5-.8-1.5-.8-.9-.8-2 .6-2 1.3-2c.6 0 1 .9.8 2-.2 1.1.1 2.2.6 2.6.6.3 1-.2.9-1.2-.5-4.1.5-5.6 2.3-3.7zm73.1 1.4c-.3.5 0 .9.5.9.6 0 1.1.7 1.1 1.6 0 1.3-.3 1.4-1.4.5-2-1.7-2.8-5.1-1-4.4.8.3 1.1.9.8 1.4zM50.5 533c.3.5.1 1-.4 1-.6 0-1.1-.5-1.1-1 0-.6.2-1 .4-1 .3 0 .8.4 1.1 1zm198.5 1.1c0 .5-.4.9-.8.9-.5 0-.9-.7-.9-1.5s.4-1.2.9-.9c.4.3.8.9.8 1.5zm50.4 0c-.8 1.4-2.4 1-2.4-.6 0-.9.6-1.2 1.5-.9.8.4 1.2 1 .9 1.5zm171.6 1.1c0 .5-.4.8-1 .8-.5 0-1-1-1-2.3 0-1.8.2-1.9 1-.7.5.8 1 1.8 1 2.2zm106-1.6c0 .8-.5 1.2-1 .9-.6-.4-.8-1.1-.5-1.6.9-1.4 1.5-1.1 1.5.7zm-471.8 1.6c-.7.7-1.2.8-1.2.2 0-1.4 1.2-2.6 1.9-1.9.2.3-.1 1.1-.7 1.7zm283.3-.4c-.3.3-1.1 0-1.8-.7-.9-1-.8-1.1.6-.5 1 .3 1.5.9 1.2 1.2zm-144.7 1.7c-.3.3-.9-.2-1.2-1.2-.6-1.4-.5-1.5.5-.6.7.7 1 1.5.7 1.8zm110.2-2.1c0 .2-.7.7-1.6 1-.8.3-1.2.2-.9-.4.6-1 2.5-1.4 2.5-.6zm112 .6c0 .5-1 1-2.2 1-1.9 0-2-.2-.8-1 1.9-1.3 3-1.3 3 0zm33-.6c0 1.1-1.9 1.5-2.5.6-.3-.5.1-1 .9-1 .9 0 1.6.2 1.6.4zm103 .4c0 .5-.7.9-1.5.9s-1.2-.4-.9-.9c.3-.4.9-.8 1.5-.8.5 0 .9.4.9.8zm-253.8 1.4c-.9.9-1.5.9-2.4 0-.9-.9-.7-1.2 1.2-1.2s2.1.3 1.2 1.2zm233.3.9c1.1 1.7-.1 2.1-1.5.4-.8-.9-.8-1.5-.2-1.5.6 0 1.4.5 1.7 1.1zm-231.1 3.7c-.8.2-1.2.8-.8 1.3.3.5 1 .7 1.5.4.5-.4.9-.1.9.4 0 .6-.4 1.1-.9 1.1s-.7 1-.4 2.2c.6 2.3.6 2.3-1.9-.2-1.6-1.7-2.1-2.9-1.5-3.8.5-.6.6-1.2.2-1.2-.5 0 0-.9 1.1-2.1 1.7-1.9 1.9-1.9 2.5-.2.4 1.1.1 1.9-.7 2.1zm147.1-2.8c.6 1 4 .8 5.1-.3.4-.4 1.4-.7 2.3-.7 1.4.1 1.3.2-.1 1.1-2.2 1.2-2.4 3.3-.2 2.5.8-.3 1.2-.2.9.3-.3.6.3 1.5 1.2 2.1 1 .6 1.1.9.3.6-.8-.3-2.3-.9-3.2-1.2-1-.4-1.8-1-1.8-1.5s-.8-.9-1.7-.9c-1.5 0-1.6.2-.3 1 .8.5 1.2 1.2.8 1.5-.7.8-6.8-3.4-6.8-4.7 0-1.1 2.8-1 3.5.2zm80.5-.1c0 .5-.7 1.1-1.5 1.5-1.5.5-2-.5-.8-1.7.9-1 2.3-.9 2.3.2zm-69 3.4c0 .5-.4.5-1 .2-.5-.3-1-1.4-1-2.3 0-1.5.2-1.5 1-.2.5.8 1 1.9 1 2.3zm36 .3c0 1.3-.5 2.4-1.2 2.4-.6 0-.1 1.1 1.2 2.5 1.2 1.3 2.6 2.2 3 2 .4-.3 1.5.4 2.5 1.5s2.4 2 3.2 2c1.1 0 1 .5-.4 2.4-1.2 1.5-2.2 2.1-2.9 1.5-.6-.5-1.4-.6-1.8-.1-.4.4-1.2-.1-1.8-1.1-.5-1-2-2.2-3.4-2.7-1.6-.7-2.2-1.4-1.7-2.6.4-1.1.8-1.2 1.3-.4.4.7 1 .8 1.3.3.3-.4-.1-1.6-.8-2.6-1-1.4-1.4-1.5-2.4-.4-.6.8-.9 1.7-.6 2.1.3.3 0 .2-.6-.3-.7-.6-.2-1.7 1.5-3.4 1.7-1.8 2.3-3.1 1.9-4.7-.4-1.6-.3-2.1.5-1.6.7.4 1.2 1.8 1.2 3.2zm-301.5-1.5c.4.5 0 1.8-.9 2.8-.9 1-1.3 2.1-.9 2.6.5.4.2.5-.5.1-1.6-.9-1.2-6.6.5-6.6.6 0 1.5.5 1.8 1.1zm175.5.9c0 .5-.2 1-.4 1-.3 0-.8-.5-1.1-1-.3-.6-.1-1 .4-1 .6 0 1.1.4 1.1 1zm121.3.4c.4 1.1.1 1.3-1 .9s-1.4-.2-.9.5c.4.7.2 1.2-.3 1.2-1.4 0-1.4-1.3.1-2.8 1.5-1.5 1.5-1.5 2.1.2zm65.2-.4c.3.5.1 1-.4 1-.6 0-1.1-.5-1.1-1 0-.6.2-1 .4-1 .3 0 .8.4 1.1 1zM147 542c0 .5-.5 1-1.1 1-.5 0-.7-.5-.4-1 .3-.6.8-1 1.1-1 .2 0 .4.4.4 1zm32.4.5c-.4.8-1 1.5-1.5 1.5-.4 0-.6-.7-.3-1.5.4-.8 1-1.5 1.5-1.5.4 0 .6.7.3 1.5zm87.6 0c-.7.9-1.5 1.3-1.9 1-.3-.3.1-1 .9-1.5 2.1-1.4 2.4-1.2 1 .5zm159.7 1.3c-1 1-1.7 2.4-1.7 3 0 1.3-2.3 1.1-6-.7-2.4-1.1-2.3-1.1.8-.5 2.6.5 3.6.1 5.4-1.9 1.3-1.4 2.5-2.4 2.7-2.1.2.2-.3 1.2-1.2 2.2zm123.8-1c-.3.3-1.1 0-1.8-.7-.9-1-.8-1.1.6-.5 1 .3 1.5.9 1.2 1.2zM314 544.2c0 .6-.6.5-1.5-.2-.8-.7-1.5-1.4-1.5-1.6 0-.2.7-.1 1.5.2.8.4 1.5 1.1 1.5 1.6zm182.9.4c-.6.8-1.7 1.4-2.3 1.4-.6 0-.5-.4.3-.9.7-.5 1.1-1.4.7-2-.5-.7-.1-.9.9-.5 1.2.5 1.3.9.4 2zm-455.9 0c0 .8-.5 1.2-1 .9-.6-.4-.8-1.1-.5-1.6.9-1.4 1.5-1.1 1.5.7zm63.8-.3c1.3-.5 1.4-.3.5.7-1.3 1.4-3.3.5-3.2-1.3 0-.9.2-.9.5 0 .3.7 1.3.9 2.2.6zm184.7-.3c-.3.5-1.2 1-1.8 1-.7 0-.6-.4.3-1 1.9-1.2 2.3-1.2 1.5 0zm20.5 0c0 .5-.5 1-1.1 1-.5 0-.7-.5-.4-1 .3-.6.8-1 1.1-1 .2 0 .4.4.4 1zm168.2 1.2c.3-.1.5 1 .3 2.3-.1 1.4.2 2.5.6 2.5 1.6 0 .9 1.5-1.2 2.8-1.9 1.2-2 1.1-1.4-1 .4-1.5.3-1.9-.3-1-1.1 1.6-3.3 1.2-4.8-.7s-3.7-.4-3.1 2c.6 2.1-.8 2.6-1.9.7-.9-1.4 4.3-6.1 5.8-5.2.8.5.9.1.5-1-1.1-2.7.1-3.8 2.6-2.4 1.2.7 2.5 1.1 2.9 1zm125.1-.7c-.3.9-.8 1.4-1 1.1-.3-.3-.2-.9.2-1.5.9-1.6 1.5-1.3.8.4zm-490.3-.1c0 1.1-1.9 1.5-2.5.6-.3-.5.1-1 .9-1 .9 0 1.6.2 1.6.4zm125.7 3.5c.2 3.4-.1 4-2.3 4.5-3.2.8-4.9-.1-3.4-1.9.7-.8.9-1.9.5-2.5-.3-.5.1-1 1-1s1.3.4 1 1c-.3.5-.4 1-.1 1 1.4 0 1.4-2 0-3.4-1.4-1.5-1.3-1.6.8-1.6s2.4.5 2.5 3.9zm9.3-2.9c0 .5-.5 1-1.1 1-.5 0-.7-.5-.4-1 .3-.6.8-1 1.1-1 .2 0 .4.4.4 1zm6.6.4c1.8 1.8 1.8 3 0 2.3-.7-.3-1.8-.1-2.4.5-.7.7-1.6.7-2.9-.1-1.7-1-1.6-1 .5-1.1 1.2 0 2.1-.3 2.1-.8-.4-2.5.6-2.8 2.7-.8zm302.1 1.1c1.5 1.3 2.2 2.5 1.5 2.5-.7 0-1 .5-.6 1.2.5.7.3.8-.7.2-.8-.5-2.3-.7-3.4-.6l-2 .3 2-1.6c2-1.6 2-1.6.1-3.1-1.1-.8-1.5-1.4-.8-1.4.6 0 2.4 1.1 3.9 2.5zm-167.3 0c-.4.8-.8 1.5-1 1.5-.2 0-.4-.7-.4-1.5s.4-1.5 1-1.5c.5 0 .7.7.4 1.5zm146.6 0c0 .8-.4 1.5-1 1.5-.5 0-.7-.7-.4-1.5.4-.8.8-1.5 1-1.5.2 0 .4.7.4 1.5zM39 547c0 .5-.4 1-1 1-.5 0-1-.5-1-1 0-.6.5-1 1-1 .6 0 1 .4 1 1zm136.4-.2c.2.4-.5.9-1.7.9-1.7.2-1.9 0-.7-.7 1.8-1.2 1.8-1.2 2.4-.2zm105 .1c.6.9-2.5 2.1-5.3 2.1-1.1 0-.9-.4.5-1.5 2.2-1.7 4-1.9 4.8-.6zm7.6.1c0 .5-.5 1-1.1 1-.5 0-.7-.5-.4-1 .3-.6.8-1 1.1-1 .2 0 .4.4.4 1zm22.6.5c-.8.8-2.1 1.5-2.8 1.5-.8-.1-.6-.6.6-1.5 2.6-2 4.2-1.9 2.2 0zm34.9.4c-.3.6-1.1 1.1-1.6 1.1s-.4-.6.3-1.4c1.4-1.6 2.4-1.3 1.3.3zM400 551c-.7 1.2-.7 2-.2 1.6 1.3-.8 4.2.3 4.2 1.6 0 .6-1.1.7-2.4.4-1.5-.4-2.6-.1-3 .7-.3.6-.4-.5-.3-2.6 0-2 .5-3.7 1-3.7.4 0 .5-.6.1-1.3-.5-.9-.4-.9.5-.1 1 .9 1 1.7.1 3.4zm-354.7-1.2c-1.1 3-5.1 8.4-5.5 7.5-.4-.6-.3-8.8.1-8.8.1 0 1.4-.1 3.1-.2 2.4-.2 2.8.1 2.3 1.5zM98 549c-2 1.3-3.3 1.3-2.5 0 .3-.6 1.4-1 2.3-1 1.5 0 1.5.2.2 1zm130-.6c0 .3-.4.8-1 1.1-.5.3-1 .1-1-.4 0-.6.5-1.1 1-1.1.6 0 1 .2 1 .4zm86.5.7c1.1 1.6.1 1.9-1.3.3-.7-.8-.8-1.4-.3-1.4s1.3.5 1.6 1.1zm144.3 1.4c0 2.6-2.3 3-2.3.4-.1-1.1 1.2-2.8 2.1-2.9.1 0 .2 1.1.2 2.5zm4.7-.6c-.3.6-1.1 1.1-1.6 1.1s-.4-.6.3-1.4c1.4-1.6 2.4-1.3 1.3.3zm-358.1.6c.3.8.1 1.5-.5 1.5s-.7.4-.4 1c.3.5-.1 1-.9 1-1.8 0-2.1-1.6-.6-2.5.6-.4.8-1.1.5-1.6-.4-.5-.2-.9.3-.9.6 0 1.2.7 1.6 1.5zm162.3.7c-.3.8-.6.5-.6-.6-.1-1.1.2-1.7.5-1.3.3.3.4 1.2.1 1.9zm101.8-.4c.4 1 0 1.2-1.1.8-1.2-.5-1.4-.1-.9 1.6.6 1.8.5 1.9-.8.7-.8-.8-1.3-1.7-1-2.2.2-.4-.1-.7-.6-.7-.6 0-1.1-.4-1.1-.8 0-1.4 4.9-.9 5.5.6zM231 551c0 .5-.5 1-1.1 1-.5 0-.7-.5-.4-1 .3-.6.8-1 1.1-1 .2 0 .4.4.4 1zm-96 .4c0 .3-.4.8-1 1.1-.5.3-1 .1-1-.4 0-.6.5-1.1 1-1.1.6 0 1 .2 1 .4zm218 1.6c0 1.1-.4 2-1 2-.5 0-1-.9-1-2s.5-2 1-2c.6 0 1 .9 1 2zm-170 2.5c-.8 2.1-1.4 2.5-2.2 1.7-.9-.9-.7-1.7.7-3.2 2.3-2.6 2.8-2 1.5 1.5zm-67.9-.2c-1 .9-1.1.8-.5-.6.3-1 .9-1.5 1.2-1.2.3.3 0 1.1-.7 1.8zm188.9-1.9c0 .3-.4.8-1 1.1-.5.3-1 .1-1-.4 0-.6.5-1.1 1-1.1.6 0 1 .2 1 .4zm158 1.7c0 1.1-.4 1.8-1 1.4-.5-.3-.7-1.2-.3-2 .7-2.1 1.3-1.9 1.3.6zm82.5-1.1c.3.5-.1 1-.9 1s-1.8-.5-2.1-1c-.3-.6.1-1 .9-1s1.8.4 2.1 1zm-191.9 5.3c.9 1.6 1.1 2.6.6 2.3-.6-.4-1.3-.2-1.7.4-1.1 1.8-2.3.2-1.7-2.5.2-1.4-.2-3.3-.9-4.3-1.3-1.5-1.2-1.6.4-.3 1 .8 2.5 2.8 3.3 4.4zm15.1-1.7c-.9.9-2.7-.6-2.7-2.2 0-1.3.2-1.3 1.6.1.9.9 1.4 1.8 1.1 2.1zm87.9-2.3c1.2 0 .7 3.5-.9 5.4-.5.7-1.4 1-1.9.7-.5-.3-.1-1.5.9-2.7 1.7-1.9 1.7-2 .1-1.4-1 .4-1.8.5-1.8.3 0-.3-.3-1.2-.7-2.2-.5-1.4-.3-1.6 1.3-1 1 .5 2.4.9 3 .9zm-249.1.7c.3.5.1 1-.4 1-.6 0-1.1-.5-1.1-1 0-.6.2-1 .4-1 .3 0 .8.4 1.1 1zm108.3 2.8c.2 3.7.2 3.7-1.4 1.4-.9-1.3-1.3-2.9-1-3.7 1-2.7 2.1-1.6 2.4 2.3zm270.2-1.7c0 .5-.4.9-.8.9-.5 0-.9-.7-.9-1.5s.4-1.2.9-.9c.4.3.8.9.8 1.5zm-482 1c0 .5-.9.9-2 .9-1.7 0-1.9-.2-.8-1.4 1.3-1.4 2.8-1.2 2.8.5zm125.1.1c.1.7.1 1.6.1 1.9-.1.4.8.5 1.8.2 1.1-.3 2-.1 2 .5 0 1.8-3.5 1.8-5.2 0-1-1-1.3-1.8-.7-1.8.5 0 .7-.5.4-1-.3-.6-.1-1 .4-1 .6 0 1.2.6 1.2 1.2zm18.9-.2c0 .5-.4 1-1 1-.5 0-1-.5-1-1 0-.6.5-1 1-1 .6 0 1 .4 1 1zm18.5 1.2c.6.4-.3.8-1.8.8-2.3 0-2.6-.2-1.5-1.4.7-.8 1.5-1.1 1.8-.8.3.4 1 1 1.5 1.4zM297 558c0 .5-.2 1-.4 1-.3 0-.8-.5-1.1-1-.3-.6-.1-1 .4-1 .6 0 1.1.4 1.1 1zm248.8.9c-1.3 2.1-2.8 1.9-2.8-.5 0-.8.9-1.4 2-1.4 1.7 0 1.9.3.8 1.9zm-487.3.1c.3.5.1 1-.4 1-.6 0-1.1-.5-1.1-1 0-.6.2-1 .4-1 .3 0 .8.4 1.1 1zm121.1.7c-.8 1.9 1.5 1.6 3-.5.8-.9 1.4-1.2 1.4-.5 0 1.6-4.7 6.2-5.6 5.4-.4-.3-.4-.1-.1.6.9 1.4-.2 4.3-1.5 4.3-.6 0-.8-.6-.5-1.4.7-1.7-1.7-2.8-3-1.5-.6.6-1.8.6-3.4 0-2.3-.9-1.2-1.6 2-1.2.7.2 1.1-.2.8-.6-.3-.5-.2-1.5.2-2.1 1-1.6 4.3-.4 3.4 1.2-.3.6 0 .6.8-.2 1.1-1 1.1-1.6.2-3.2-1.1-1.6-1-1.9.8-1.7 1.1.1 1.7.7 1.5 1.4zm13.8-1.1c2.1.8 2 3 0 3.8-2.2.9-3.2-.3-1.4-1.5 1.3-.8 1.3-1 0-1.9-1.7-1.1-1-1.3 1.4-.4zm-22.1 1.9c-.3.9-.8 1.4-1 1.1-.3-.3-.2-.9.2-1.5.9-1.6 1.5-1.3.8.4zm34.7-.5c0 .5-.8 1-1.7 1-1.5 0-1.6-.2-.3-1 1.9-1.2 2-1.2 2 0zm97 .5c-.7.8-1.7 1.5-2.2 1.5-.6 0-.5-.7.2-1.5s1.7-1.5 2.2-1.5c.6 0 .5.7-.2 1.5zm-166 1.1c0 1.3-.6 1.5-2.7 1s-2.4-.4-1.3.4c1.3.8 1.3 1-.1 1-.9 0-1.9-.9-2.2-2-.4-1.7 0-2 2.9-2 2.5 0 3.4.4 3.4 1.6zm76-1.2c0 1.1-1.9 1.5-2.5.6-.3-.5.1-1 .9-1 .9 0 1.6.2 1.6.4zm171 1.2c0 .7-1 .9-2.5.6-3.2-.6-3.2-2 0-1.8 1.4 0 2.5.6 2.5 1.2zm-281-.2c0 .3-.4.8-1 1.1-.5.3-1 .1-1-.4 0-.6.5-1.1 1-1.1.6 0 1 .2 1 .4zm268.3.9c.3.8-.7 2.1-2.4 3.1-3.3 1.9-3.7 1.1-1.1-2.2 2-2.5 2.8-2.7 3.5-.9zM109 566.2c0 1.9-1.6.5-1.7-1.4-.2-1.8 0-2 .7-.8.5.8 1 1.8 1 2.2zm38.8-1.3c-.7 1.1-1.6 1.7-2.1 1.4-.4-.3 0-1.1 1-1.9 2.4-1.8 2.5-1.7 1.1.5zm149-.7c.9.9 1.2.9 1.2 0 0-.6.7-.9 1.5-.6 2.2.9 1.8 2.3-.7 3.3-1.3.5-2.7 1-3.2 1.2-.5.2-1-.8-1-2.4-.2-3 .4-3.3 2.2-1.5zm14 2.4c.8.6 1.2 1.6.8 2.2-.4.7-.3 1.2.3 1.2 1.3 0 .2 3-1.7 4.9-1.3 1.3-1.2 1.7.6 3.1 1.6 1.3 1.7 1.9.7 3.3-1.5 2.1-2.9 2.2-2.1.2.3-.8.1-1.5-.4-1.5-.6 0-1-1.1-1-2.5s-.4-2.5-1-2.5c-.5 0-1-.6-1-1.4 0-.8-.6-1.7-1.2-2-.7-.3.1-.2 1.7.1 2.7.6 2.9.5 1.6-1-1-1.2-1-1.7-.1-1.7.8 0 1-1.1.6-3.3-.3-1.7-.3-2.5.1-1.7.3.8 1.3 2 2.1 2.6zm45.6-1.6c-1.9.7-1.8.7.1 1.2 1.5.4 1.3.6-.8.7-1.6 0-2.6.5-2.2 1.1.3.5 0 1-.9 1-.8 0-1.3-.7-1.2-1.5.3-2.1 3.7-4.4 5.5-3.7 1.1.4 1 .7-.5 1.2zm-237.8 1.8c-1.8 1.6-1.8 1.6-.6-.6.6-1.3 1.4-2.1 1.8-1.8.3.4-.2 1.4-1.2 2.4zm166.9-1.8c1.7.7 2.4.7 2 0-.3-.6-.1-1 .4-1 .6 0 1.1.7 1.1 1.5 0 1.6-3.4 3.8-4.3 2.8-.4-.3-.9.2-1.3 1.1-.3.9-1.1 1.6-1.6 1.6-.6 0-.8-.7-.4-1.5.7-1.8-.5-2-2.4-.3-.7.7-.3-.2.9-2 2.6-3.7 2.2-3.5 5.6-2.2zm88.2 2.2c-.3.8-.6.5-.6-.6-.1-1.1.2-1.7.5-1.3.3.3.4 1.2.1 1.9zM396 566c0 .5-.2 1-.4 1-.3 0-.8-.5-1.1-1-.3-.6-.1-1 .4-1 .6 0 1.1.4 1.1 1zm-24.5 1c.3.5-.1 1-.9 1-.9 0-1.6-.5-1.6-1 0-.6.4-1 .9-1 .6 0 1.3.4 1.6 1zm-164 .9c.3.6-.3.9-1.4.8-1.1 0-1.7-.5-1.5-.9.7-1.1 2.2-1 2.9.1zm56.1 0c.9-.8 1.4-.8 1.4-.1 0 1.6-1.6 2.3-3.4 1.6-.9-.3-1.3-1.1-.9-1.7.5-.8.8-.7 1.1.1.3 1 .7 1 1.8.1zm28.1.8c-.9.9-1.9 1.4-2.3 1.1-1-1 .6-2.8 2.4-2.8 1.5 0 1.5.1-.1 1.7zm9.3 1.4c0 .5-.7.9-1.5.9-1.5 0-2-1.2-.9-2.3.8-.8 2.4.1 2.4 1.4zm27.2.7c-.6.2-1.2 1.7-1.2 3.3 0 2.7 1.1 3.5 4.3 3 .4 0 .7.6.7 1.4 0 1.9-.9 1.9-3.4 0s-3.2-1.9-3.9-.1c-.4 1 .1 1.2 1.6.9 2-.4 2-.3.4.7-1.4.9-2.2.9-3.3 0-1.9-1.6-1.8-5 .1-5 1.4 0 2-1.7 1.6-4.7-.1-.7.7-.9 2.1-.5 1.2.3 1.7.7 1 1zm14.4.9c-.3.3-1.3.2-2.3-.2-1.7-.7-1.7-.8.2-1.5s3.4.5 2.1 1.7zm4.1-.5c-.3.8-.6.5-.6-.6-.1-1.1.2-1.7.5-1.3.3.3.4 1.2.1 1.9zM139 571c0 .5-.5 1-1.1 1-.5 0-.7-.5-.4-1 .3-.6.8-1 1.1-1 .2 0 .4.4.4 1zm5-.6c0 .2-.3 1.2-.6 2-.5 1.3-.9 1.4-2 .5-1.6-1.3-.9-2.9 1.2-2.9.8 0 1.4.2 1.4.4zm56 .6c0 .5-.2 1-.4 1-.3 0-.8-.5-1.1-1-.3-.6-.1-1 .4-1 .6 0 1.1.4 1.1 1zm87-.6c0 .2-.7.6-1.5 1-.8.3-1.5.1-1.5-.4 0-.6.7-1 1.5-1s1.5.2 1.5.4zm-67.5 1.6c.4.6-.5 1-1.9 1s-2.6-.5-2.6-1c0-.6.9-1 1.9-1 1.1 0 2.3.4 2.6 1zm43.8-.3c-.7.2-1.9.2-2.5 0-.7-.3-.2-.5 1.2-.5s1.9.2 1.3.5zm95.3 2.2c.1 2.2-.3 2.7-1.5 2.4-2.2-.6-2.4-4.1-.3-4.6.9-.3 1.7-.5 1.7-.6 0 0 0 1.2.1 2.8zm48.4.2c0 .5-1.1.9-2.5.9-2.2 0-2.4-.2-1.3-1.9.9-1.5 1.5-1.7 2.5-.9.7.6 1.3 1.4 1.3 1.9zm-307.3-1.5c-.3.3-1.2.4-1.9.1-.8-.3-.5-.6.6-.6 1.1-.1 1.7.2 1.3.5zm244.6 2c-2.4 1.8-3.3 1.7-3.3-.2 0-.8.4-1.3.9-.9.5.3 1.2.1 1.6-.5.4-.6 1.1-.8 1.6-.4.6.3.3 1.2-.8 2zm-131.5-.4c-.2.6-1 1.4-1.6 1.6-.7.2-1-.2-.6-1.2.7-1.8 2.8-2.2 2.2-.4zm37.7-.3c.3.5.1 1.2-.4 1.5-.5.3-1.1-.1-1.5-.9-.6-1.6.9-2.1 1.9-.6zm80.3 1.6c-.3.3-.9-.2-1.2-1.2-.6-1.4-.5-1.5.5-.6.7.7 1 1.5.7 1.8zm-65.8.1c0 1.4-.3 1.4-1.5.4-.8-.7-1.5-1.4-1.5-1.6 0-.2.7-.4 1.5-.4s1.5.7 1.5 1.6zm53.4-.4c-.5.8-.2.9.9.5 1-.3 1.7-.2 1.7.3 0 .6-.9 1-2 1-2 0-2.6-1.1-1.3-2.3 1-1.1 1.5-.8.7.5zm-16.4.2c0 .3-.4.8-1 1.1-.5.3-1 .1-1-.4 0-.6.5-1.1 1-1.1.6 0 1 .2 1 .4zm-48 2.5c0 1.7-1.5 1.9-3.5.5-1.8-1.3-1.8-1.4.8-1.4 1.5 0 2.7.4 2.7.9zm21.5.1c.3.5.1 1-.4 1-.6 0-1.1-.5-1.1-1 0-.6.2-1 .4-1 .3 0 .8.4 1.1 1zm22.1 1.3c.8-.3 1.4 0 1.4.6s-1.4 1.1-3.1 1.1c-2.8 0-3-.2-1.8-1.6.8-.9 1.5-1.2 1.7-.6.2.6 1 .8 1.8.5zm8.2 1.8c-.2.6-.8 1-1.3 1s-1.1-.4-1.3-1c-.2-.6.4-1.1 1.3-1.1s1.5.5 1.3 1.1zm100.7-.1c.3.5.1 1-.4 1-.6 0-1.1-.5-1.1-1 0-.6.2-1 .4-1 .3 0 .8.4 1.1 1zm-75.7 1.2c.7.9.6 1.7-.3 2.5-1.5 1.4-2.5.7-2.5-1.9 0-2.1 1.3-2.4 2.8-.6zm9.2.3c0 .8-.4 1.5-.8 1.5-.5 0-.9-.7-.9-1.5s.4-1.5.9-1.5c.4 0 .8.7.8 1.5zm-96 .5c0 .5-.7 1-1.6 1-.8 0-1.2-.5-.9-1 .3-.6 1-1 1.6-1 .5 0 .9.4.9 1zm9.7.5c0 .8-.7 1.5-1.5 1.5-1.2 0-1.2-.3-.2-1.5.7-.8 1.3-1.5 1.5-1.5.1 0 .2.7.2 1.5zM314 585c0 .5-.4 1-1 1-.5 0-1-.5-1-1 0-.6.5-1 1-1 .6 0 1 .4 1 1zm152.4.5c.3.9-.1 1.8-1 2.2-1.9.7-2.8-.2-2.1-2.2.8-1.9 2.3-1.9 3.1 0zm-145.8 2.2c-1 1-1.9-.5-1-1.8.6-1.1.8-1.1 1.2 0 .2.7.1 1.5-.2 1.8zm6.4-1.7c0 .5-.5 1-1.1 1-.5 0-.7-.5-.4-1 .3-.6.8-1 1.1-1 .2 0 .4.4.4 1z"/><path d="M374 146.9c0 .5.5 1.3 1 1.6.6.3 1 .2 1-.4 0-.5-.4-1.3-1-1.6-.5-.3-1-.2-1 .4zM283.2 163.6c-.9 1-1.9 1.1-3.8.4-3.5-1.4-4.4-1.2-3.8.5.4.8.1 1.5-.6 1.5-1.2 0-9.9 8.4-10.1 9.8-.6 5.6-.7 5.4 2.5 4.7 7.5-1.5 15.6-1.8 17.1-.5 2.3 1.9 1.8 3-1.5 3-2.7 0-3 .3-2.5 2.3.5 1.8.2 2.3-1.4 2.4-1.2.1-2.1-.2-2.1-.7 0-.5-.7-.7-1.6-.3-1.1.4-1.2.8-.4 1.3.8.5.4 1.6-1.5 3.4-2 2-2.4 3-1.6 4 .6.7.9 1.5.6 1.8-.3.3.1 1.1 1 1.8 1 .8 1.5.9 1.5.1 0-.6 1.1-1.1 2.4-1.1 1.3 0 2.9-.7 3.6-1.5.7-.9 2.1-1.3 3.4-.9 1.4.3 2.8-.1 3.5-1 .8-.9 1.8-1.6 2.3-1.6.6 0 .5.7-.2 1.5-1.6 1.9-.6 7.3 1.8 9.1 1.6 1.2 1.5 1.3-.5 1.4-1.3 0-2.3.4-2.3.9 0 1.5 2.7 2 3.9.8 1.3-1.3 1.4-.6.2 2.5-.8 2.2-.7 2.4 2.5 2.3 4.5-.2 5-.9 2.4-3.3l-2.1-1.9 3.8-.7c2.1-.3 4.7-1.3 5.8-2.2 2-1.6 2-1.6-.2-1-1.7.6-2 .3-1.6-1.2.2-1.1 0-3.6-.5-5.6-1.2-4.2-.9-4.3 3.8-1.6l3.5 2.1-2.9-2.5c-1.6-1.3-4.3-2.9-6-3.5l-3.1-1.1 3.3.5c3 .4 4.6-.9 2-1.7-.8-.3-.7-1.1.4-2.7.9-1.2 1.9-1.8 2.2-1.3.4.7 1.7.6 3.6-.1 3.2-1.2 3.8-2.3 1.8-3-.7-.2-.5-.3.4-.2 1 .2 2-.1 2.3-.6.3-.4 1.3-.5 2.1-.2 2.4.9 6.4-1.7 6.4-4.3 0-1.2-.7-2.4-1.5-2.8-.8-.3-1.5-1.2-1.5-2 0-1.4-2.1-2.6-4.7-2.6-1 0-1.3.6-.9 1.6.4 1.1-.1 1-2-.5-1.5-1.2-3.2-2.1-3.9-2.1-.7 0-2.3-.8-3.6-1.9-1.9-1.4-3.7-1.7-8.2-1.4-3.2.2-6.7-.2-7.9-.8-1.6-.8-1.9-.8-1.3.1.6.9.3.9-1.1.2-1.4-.7-2.3-.6-3.2.4zm4.3 13.4c.3.5-.1 1-.9 1-.9 0-1.6-.5-1.6-1 0-.6.4-1 .9-1 .6 0 1.3.4 1.6 1zm4.3 0c-.2.5.2.9.7.7.6-.1.9-.5.8-.9-.4-1.1 6.1.4 7 1.6.5.8 1 .6 1.7-.4.8-1.3 1-1.3 1 .2 0 1-.9 1.8-2.2 2-1.3.2-2.2.9-2 1.6.1.8-.1 1.1-.6.8-.5-.3-2.6 0-4.6.6-3.1 1-3.5 1.3-2 1.9 1.5.6 1.3.7-.8.6-1.5-.1-3-.7-3.2-1.4-.3-.7 0-1.2.6-1 .6.1 1.3-.4 1.5-1.1.3-.6-.4-1.3-1.4-1.3-1.7-.1-1.7-.2 0-.6.9-.2 1.4-.9 1.1-1.5-.4-.6 0-1.4.7-1.9 1.8-1.1 2-1.1 1.7.1zm15.9 3.5c.2.6-.6 1-1.6 1-1.1 0-2.3.3-2.7.7-.4.5-1.2.8-1.7.8-.6 0-.2-.8.9-1.8 2-1.9 4.7-2.3 5.1-.7zm-21.5 4.9c1-.5 1-.4.1.6-1.3 1.4-4.3.7-4.3-1.1 0-.8.4-.8 1.5.1.8.6 2 .8 2.7.4zm7.5 5.2c-.3.3-1.2.4-1.9.1-.8-.3-.5-.6.6-.6 1.1-.1 1.7.2 1.3.5zm-5.3 1.9c-2.2 1.7-3.4 1.9-3.4.6 0-.5.8-1.2 1.8-1.4 3.2-.9 3.6-.7 1.6.8zM383.6 163.5c.4.9 0 1.6-.7 1.6-.8.1-2.7.3-4.4.4-1.6.1-4.3.7-5.8 1.4-1.6.6-4.3 1.1-6.2 1.1-1.9 0-3.6.4-3.9.8-.3.5-2.3.7-4.4.5-3.3-.2-4.3.1-5.6 2.2-2.4 3.6-2 7 1 8.9 1.4 1 2.9 2.7 3.4 3.9.7 2.1.8 2.1 1.6.3.5-1.3.2-2.1-.9-2.8-3-1.6-1.8-2.9 1.2-1.3 2 1 3.1 1.1 3.3.4.4-1.3 4.8-.3 4.8 1.1 0 .5-.7.7-1.4.4-1-.4-2.1.6-3.1 2.8-3 6.2-4 7.8-4.7 7.8-.5 0-.8.4-.8 1 0 1.4 2.7 1.2 6-.5l2.9-1.5-.9 3c-.5 1.8-.4 4.3.2 6.4 1 3.1 1.5 3.5 5.7 4.1 4.4.5 8.8.1 9.9-1 .3-.3-.5-.5-1.8-.5-1.9 0-2.1-.3-1.2-1.2 1.6-1.6 1.6-9 0-10.6-.9-.9-.9-1.2.1-1.2 2.3 0 5.6 2.1 8.8 5.8 1.8 2.1 3.3 3.1 3.3 2.4 0-.8-1.4-2.7-3.1-4.3-3.3-3.1-3-5.3.6-4.7 1.8.4 2.2.1 1.7-1-.4-1.2.1-1.4 2.6-.9 2.9.6 3.1.5 2.3-1.6-.6-1.6-2.2-2.6-5.7-3.4-2.7-.7-5.5-1.1-6.1-.8-3.1 1.1.8-3.1 5.1-5.6 1.6-.9 1.8-.9 1.3.5-.4.9-.2 1.6.3 1.6.6 0 1-.5 1-1 0-.6 1.2-1 2.6-1 1.6 0 2.3.4 1.8 1.2-.5.8 0 .9 1.5.5 1.4-.3 2.4 0 2.8.9.7 1.9 2.9 1.8 3.7-.2.6-1.5.8-1.5 3.1 0 3.2 2.1 3.2 1.4 0-1.8-1.4-1.4-2.5-3.1-2.5-3.9 0-1.3-5.1-5.7-6.7-5.7-.4 0-1.9-.9-3.3-2-1.8-1.4-2.8-1.6-3.8-.8-1 .9-1.7.6-2.8-1-1.7-2.5-3.6-3-2.8-.7zm-6.1 16.8c.7.7.5.8-.7.4-1-.3-2-.2-2.3.3-.8 1.3-6.3.6-7.8-1-1-1-.8-1.2.9-.8 1.2.3 2.8.2 3.5-.3 1.5-.9 4.9-.2 6.4 1.4z"/><path d="M313.2 183.5c-.7 1.5-1 3.1-.7 3.6.4.5-.5.9-1.9.9s-2.6-.5-2.6-1c0-.6-1-1-2.2-1-2 0-2.1.1-.3 2 1 1.1 2.3 1.9 2.9 1.9.6-.1 2.6.5 4.5 1.3 2.5 1.1 3.8 1.3 4.6.5 1.4-1.3.9-8.7-.7-10.2-.7-.7-.8-.2-.4 1.5l.7 2.5-1.4-2.3-1.3-2.3-1.2 2.6zm3.6 4.3c.2.7-.3 1.2-1.2 1.2-.9 0-1.6-.7-1.6-1.6 0-1.7 2.2-1.4 2.8.4zM328 188.5c0 1.2 1 1.4 4.2 1 2.3-.3 6.7-.8 9.7-1 8.7-.8 7.1-1.3-3.8-1.4-8.2 0-10.1.3-10.1 1.4zM320.5 194c.3.5 1.1 1 1.6 1 .6 0 .7-.5.4-1-.3-.6-1.1-1-1.6-1-.6 0-.7.4-.4 1zM354.1 197.3c-1.3 2.1-1.2 2.1.5.5 1-1 1.6-2 1.3-2.2-.3-.3-1.1.5-1.8 1.7zM318 197c0 .5.5 1 1.1 1 .5 0 .7-.5.4-1-.3-.6-.8-1-1.1-1-.2 0-.4.4-.4 1zM319.9 202.7c-1.3 1.6-1.2 1.7.4.4 1.6-1.3 2.1-2.1 1.3-2.1-.2 0-1 .8-1.7 1.7zM310.7 202.7c-2 .5-1.8 2.4.4 3.1.8.3 1.1.1.7-.3-.4-.5-.3-1.4.3-2.2.6-.7 1-1.2.8-1.2-.2.1-1.2.3-2.2.6zM387.5 204c-.3.5-.1 1 .4 1 .6 0 1.1-.5 1.1-1 0-.6-.2-1-.4-1-.3 0-.8.4-1.1 1zM323 204.9c0 .8-1.1 1.1-2.7.9-2.3-.2-2.7.1-2.5 1.5.2 1.1-.3 2.4-1.1 3-.9.7-2.1 3.9-2.7 7.2-.7 3.3-1.4 6.5-1.7 7.1-.2.6.7 1.8 2.1 2.8 2.4 1.5 2.5 1.5 1.9-.1-.6-1.6-.5-1.7 1.2-.3 1 .8 1.6 1 1.2.3-.4-.6-.3-1.4.2-1.8.5-.3 1.4.2 1.9 1.1.7 1.2.9.8.9-1.5 0-1.7-.4-3.1-.9-3.1-.4 0-.8-.5-.8-1.1 0-.6.7-.9 1.5-.5 1.4.5 1.3.2 0-2.4-.9-1.7-1.1-3-.5-3 .5 0 1 .7 1 1.5 0 1.9 1.6 2 2.3.1.3-.8-.3-2.2-1.4-3.2-2.3-2.1-2.4-3.4-.3-3.4 1.3 0 1.4-.3.5-1.3-.8-1-.7-1.7.1-2.5.6-.6.9-1.5.5-1.9-.4-.3-.7-.1-.7.6zM309.5 208c.3.5 1.1 1 1.6 1 .6 0 .7-.5.4-1-.3-.6-1.1-1-1.6-1-.6 0-.7.4-.4 1zM302.4 209.5c1 .8 2.3 1.2 2.8.9 1.4-.9-.2-2.4-2.5-2.4-2.1.1-2.1.1-.3 1.5zM308.8 213.7c.6.2 1.8.2 2.5 0 .6-.3.1-.5-1.3-.5-1.4 0-1.9.2-1.2.5zM348.3 228.7c-2.1.8-1.5 2.3 1 2.2 1.2 0 1.6-.3.9-.6-.6-.2-1-.9-.6-1.4.6-1 .5-1-1.3-.2zM314 237.5c0 .8.5 1.5 1 1.5.6 0 1-.7 1-1.5s-.4-1.5-1-1.5c-.5 0-1 .7-1 1.5zM275.1 269.6c0 1.1.3 1.4.6.6.3-.7.2-1.6-.1-1.9-.3-.4-.6.2-.5 1.3zM380.7 280c.3 1.1.7 2 .9 2 .2 0 .4-.9.4-2s-.4-2-.9-2-.7.9-.4 2zM394.1 279.4c-.8 1-.9 1.6-.1 2.1.5.3 1 .1 1-.5s.4-.9.9-.6c.5.3 1.1-.1 1.5-.9.7-1.9-1.8-2-3.3-.1zM348.7 298.6c-1.1 1.1 1.6 5.2 3.7 5.8 3.5 1 4.6.7 4.5-1.2 0-1-.3-1.2-.6-.5-.2.7-.9 1.3-1.5 1.3s-.8-.7-.4-1.5c.5-1.5-4.6-5-5.7-3.9zM356.4 299.2c-.4.7-.2 1.4.4 1.6.7.2 1.2 1 1.2 1.8 0 1.6.9 1.8 2.8.6.9-.6.6-1.4-1.3-3-1.7-1.5-2.6-1.8-3.1-1zM326 321.5c0 .5.5 1.7 1 2.5s1 1 1 .5c0-.6-.5-1.7-1-2.5s-1-1.1-1-.5zM360.5 325c.3.5.8 1 1.1 1 .2 0 .4-.5.4-1 0-.6-.5-1-1.1-1-.5 0-.7.4-.4 1zM334 393.9c0 .5-.3 1.8-.6 2.8-.5 1.6-.4 1.6 1-.1 1.8-2.3 2-3.6.6-3.6-.5 0-1 .4-1 .9zM352.5 405c-.3.5.1 1 .9 1 .9 0 1.6-.5 1.6-1 0-.6-.4-1-.9-1-.6 0-1.3.4-1.6 1zM336.5 407c-.3.5-.1 1 .4 1 .6 0 1.1-.5 1.1-1 0-.6-.2-1-.4-1-.3 0-.8.4-1.1 1zM548 551.4c0 .8.5 1.8 1 2.1.6.3 1-.1 1-.9s-.4-1.8-1-2.1c-.5-.3-1 .1-1 .9zM257.7 102.7c-.4.3-.7 1.3-.7 2.2.1 1.3.3 1.3 1.1-.2 1.1-1.9.8-3.3-.4-2zM510.7 545.7c-.4.3-.7 1.1-.7 1.7 0 .6.5.5 1.2-.2.6-.6.9-1.4.7-1.7-.3-.3-.9-.2-1.2.2zM508.1 547.6c0 1.1.3 1.4.6.6.3-.7.2-1.6-.1-1.9-.3-.4-.6.2-.5 1.3zM520 546.8c0 1.2 1.9 2.6 2.6 1.9.2-.2-.2-1-1.1-1.7-.9-.8-1.5-.8-1.5-.2zM523 551.1c0 .6-.9.9-2 .6-1.4-.3-2 0-2.2 1.1 0 1-.2 2.1-.3 2.7-.2.5-.3 1.4-.4 2-.1.5-.6.3-1.1-.5-.5-.8-1-1-1-.4 0 1.5 2.5 3.6 3.3 2.7.4-.3.7-.1.7.5 0 .7.6 1.2 1.4 1.2.8 0 1.7.4 2.1.9.3.6-.9.7-3 .4-4.2-.7-4.6.4-.6 1.8 2.1.7 2.9 1.6 2.6 2.9-.2 1 .3 2.1 1.2 2.4 1.1.4 1.3.2.9-.9-.4-1.2-.2-1.3 1.5-.2 1.6 1 1.7 1.3.4 1.5-1.9.4-2 2.2 0 2.2.8 0 1.5.8 1.5 1.7 0 1-.4 1.4-.8.8-.4-.6-1.8-1.1-3.2-1.3-2.3-.2-2.4-.1-.8 1.1 1 .8 1.4 1.8 1 2.2-.4.5.1.5 1 .2s1.8-.1 2.1.6c.2.6 1.2-.3 2.2-2 1.6-2.8 2-3 3-1.6 1 1.3 1.6 1.3 3.4.4 2.4-1.4 2.4-2.9-.2-4.5-1.2-.8-2.3-.7-3.8.2-1.8 1.1-2 1.1-1.7 0 .3-.7-.2-1.9-1.1-2.6-1.5-1.1-1.4-1.3.2-2.3 1.8-1.1 2.4-6.4.7-7.4-.6-.3-.7.1-.4.9.4 1.2 0 1.6-1.5 1.6-1.2 0-2.4-.6-2.7-1.4-.3-.8-1.4-1.2-2.7-.9-2.1.4-2.1.4.2-1 1.5-.9 2-1.7 1.2-2.1-.6-.4-1.5-.4-2.1-.1-.5.3-1 .2-1-.3 0-1.4 4.2-2.3 5.6-1.1.8.7 1.4.7 1.8 0 .4-.6-.2-1.5-1.3-2-2.5-1.4-4.1-1.4-4.1 0zm12.2 20.1c-.9.9-1.5.9-2.4 0-.9-.9-.7-1.2 1.2-1.2s2.1.3 1.2 1.2zM559.6 553.5c.4.8.8 1.5 1 1.5.2 0 .4-.7.4-1.5s-.4-1.5-1-1.5c-.5 0-.7.7-.4 1.5zM82.5 553.9c-.3.5-.1 1.2.5 1.6.5.3 1-.1 1-.9 0-1.8-.6-2.1-1.5-.7zM411.7 553.7c-.4.3-.7 1.1-.7 1.7 0 .6.5.5 1.2-.2.6-.6.9-1.4.7-1.7-.3-.3-.9-.2-1.2.2zM90.3 556.3c.5 1.5 3.7 2.2 3.7.9 0-.5-.9-1.2-2.1-1.5-1.3-.3-1.9-.1-1.6.6zM419.5 557.2c1 3.2 1.8 3.9 3.4 2.9 1.1-.7.9-1.3-.8-3-2.7-2.7-3.4-2.7-2.6.1zM72.5 557c-.3.5.1 1 1 1s1.3-.5 1-1c-.3-.6-.8-1-1-1-.2 0-.7.4-1 1zM238.5 557c-.3.5.1 1 1 1s1.3-.5 1-1c-.3-.6-.8-1-1-1-.2 0-.7.4-1 1zM87 558c0 .5.5 1 1 1 .6 0 1-.5 1-1 0-.6-.4-1-1-1-.5 0-1 .4-1 1zM485.5 558c-1 1.6 1.7 4.8 3.6 4.3 1.7-.5 1.7-.7.2-2.9-1.6-2.6-2.8-3-3.8-1.4zM558 558.3c0 1.4 2 3.7 3.2 3.7 1.3 0 .9-2-.6-3.6-1.8-1.7-2.6-1.8-2.6-.1zM81.6 558.9c-.4.7-.5 1.5-.2 1.8.9.9 1.9-.4 1.4-1.8-.4-1.1-.6-1.1-1.2 0z"/><path d="M84.9 559.8c1.2 2.2.5 3.3-1.4 2.5-1.4-.5-7.4 2.4-8.7 4.2-1.2 1.6-.9 2.5.8 2.5.8 0 1.2-.5.9-1-.3-.6 0-1.1.7-1.1.7-.1 2-.2 2.8-.3.8 0 1.4-.7 1.2-1.5-.2-.9.5-1.2 2.3-.9 1.4.3 2.5.1 2.5-.3 0-.5.6-.6 1.4-.3 1.6.6 2.8-.8 1.8-2.1-.4-.6-1.7-1.6-3-2.3-2.1-1.2-2.2-1.1-1.3.6zM235.4 559.2c-.3.5.3 1.2 1.4 1.5 1.4.3 1.8 1.1 1.5 2.4-.3 1 0 1.9.6 1.9s1.1-.9 1.1-2 .5-2 1.1-2c.5 0 .8-.4.5-.9-.8-1.3-5.6-2-6.2-.9zM78.5 560c-.3.5-.1 1 .4 1 .6 0 1.1-.5 1.1-1 0-.6-.2-1-.4-1-.3 0-.8.4-1.1 1zM472 559.9c0 .6.5 1.1 1 1.1.6 0 .9.3.9.7-.3 2.1.2 3.3 1.6 3.3 2.5 0 1.7-2.2-1.7-4.9-1.2-.9-1.8-1-1.8-.2zM505.1 560.7c.4 2-.2 2.4-1.8 1.2-1-.7-1.5-.9-1.1-.5.4.5.2 1.6-.5 2.4-1 1.3-.9 1.4.2.8 1.7-1.1 3.3 1.4 2 3.1-.7.8-.6 1.9.2 3.5 1.1 2 1.4 2 1.7.5.2-.9.8-1.7 1.3-1.7 1.3 0 .1-4.2-1.4-5.2-.7-.4-.7-1.1.2-2.1.8-1.1.9-1.7.1-2.2-.6-.4-1-.3-.9.2zM36.5 562c-.3.5-.2 1 .4 1 .5 0 1.3-.5 1.6-1 .3-.6.2-1-.4-1-.5 0-1.3.4-1.6 1zM91 562c0 .6 1 2.1 2.1 3.3 1.2 1.2 1.9 1.5 1.5.7-.3-.8-.9-2.3-1.2-3.3-.7-1.8-2.4-2.4-2.4-.7zM468.7 561.7c-1 .9-.9 2.3.2 2.3.5 0 1.1-.7 1.5-1.5.5-1.5-.5-2-1.7-.8zM63.6 563.2c.3.4 1.4.8 2.4.8s2.1-.4 2.4-.8c.3-.5-.8-.9-2.4-.9-1.6 0-2.7.4-2.4.9zM511.6 563.5c.3.8 1 1.5 1.5 1.5s1.3 1 1.8 2.2c.8 2.1.8 2.1 1.3.1.4-1.5-.2-2.5-2.3-3.7-2.5-1.5-2.8-1.5-2.3-.1zM558.4 563.8c.3 1.8 1.8 2 2.4.4.1-.5-.4-1.2-1.2-1.5-.9-.4-1.3 0-1.2 1.1zM588.5 563c-.3.5-.2 1 .4 1 .5 0 1.3-.5 1.6-1 .3-.6.2-1-.4-1-.5 0-1.3.4-1.6 1zM60.5 564c-.3.5-.1 1 .4 1 .6 0 1.1-.5 1.1-1 0-.6-.2-1-.4-1-.3 0-.8.4-1.1 1zM471.1 564.7c-.1 2.4-2.1 3.3-2.1 1 0-.8-.3-.7-1 .3-1.4 2.2.8 4.4 2.8 2.8.8-.7 1.7-1.2 1.9-1.1.5.5.3-.5-.7-2.9l-.9-2.3v2.2zM508 563.4c0 .2.7.9 1.5 1.6.9.7 1.5.8 1.5.2 0-.5-.7-1.2-1.5-1.6-.8-.3-1.5-.4-1.5-.2zM429.8 564.7c.6.2 1.8.2 2.5 0 .6-.3.1-.5-1.3-.5-1.4 0-1.9.2-1.2.5zM422.8 566.7c.6.2.9 1 .6 1.5-.4.7-.2.8.4.4 1.8-1.1 1.4-2.6-.5-2.5-1.1 0-1.3.3-.5.6zM490.7 568.2c.8 2.9 4.9 8.9 5.6 8.1.3-.3-.1-1.6-.9-2.9-.9-1.3-1.2-2.9-.8-3.5.5-.8.2-1-.8-.6-1 .3-1.5 0-1.4-1 0-.9-.4-1.8-1.1-2-.7-.3-.9.4-.6 1.9z"/><path d="M499.6 567.6c-1.1.7-1.7 1.7-1.3 2 .3.4 1.4-.1 2.3-1 2.1-2.2 1.5-2.8-1-1zM53.9 568.1c-2 1.2 1.5 2.3 3.7 1.1 1.5-.8 1.4-1-.4-1.4-1.1-.3-2.6-.2-3.3.3zM223.6 568.5c-.8 2.2.3 4 1.6 2.7.7-.7.7-1.6.1-2.7-.9-1.6-1-1.6-1.7 0zM560.5 568.1c-.4.6-.5 1.2-.2 1.5.2.3.7-.2 1-1.1.7-1.7.1-2-.8-.4zM572 568c0 .5.5 1 1.1 1 .5 0 .7-.5.4-1-.3-.6-.8-1-1.1-1-.2 0-.4.4-.4 1zM462.8 568.7c.6.2 1.2 1.1 1.2 1.9 0 1.8 1.6 1.8 2.3 0 .6-1.4-1.3-2.7-3.6-2.5-.8 0-.8.2.1.6zM413 569.9c0 .5.5 1.3 1 1.6.6.3 1 .2 1-.4 0-.5-.4-1.3-1-1.6-.5-.3-1-.2-1 .4zM427.7 570.4c-.3.8 0 1.7.7 1.9 1 .4 1.2-.1.9-1.4-.6-2.3-.9-2.4-1.6-.5zM70 571.5c-1.7 2.1-.5 3.1 1.5 1.2.8-.9 1.5-1.8 1.5-2.1 0-1.1-1.8-.6-3 .9zM235.3 570.7c.4.3.2 1.2-.4 1.9-1.6 2-.1 3.7 1.7 2 1.5-1.5.9-4.6-.9-4.6-.6 0-.7.3-.4.7zM476.6 571.5c-.3.9 0 1.5.9 1.5.8 0 1.5-.7 1.5-1.5s-.4-1.5-.9-1.5-1.1.7-1.5 1.5zM563.3 571.7c0 .7.5 1.2 1.1 1 1.5-.5 1.8-2.4.3-2.4-.8 0-1.4.6-1.4 1.4zM47 572.1c0 .5.5.7 1 .4.6-.3 1-.8 1-1.1 0-.2-.4-.4-1-.4-.5 0-1 .5-1 1.1zM50.4 571.7c1 1.1 5.6 1.1 5 .1-.3-.4-1.7-.8-3.1-.8-1.5 0-2.3.3-1.9.7zM508.5 573.2c.4 1.1.2 1.8-.4 1.8-.6 0-1.1.4-1.1 1 0 1.6 1.7 1.1 2.4-.7.4-.9.2-2.1-.4-2.7-.8-.8-.9-.6-.5.6zM188.7 573.6c-1.3 1.3-.7 4.4.8 4.4 1.6 0 1.7-.5.6-3.3-.3-1-1-1.5-1.4-1.1zM443 575c0 .5.5 1 1.1 1 .5 0 .7-.5.4-1-.3-.6-.8-1-1.1-1-.2 0-.4.4-.4 1zM121.6 576.5c-.3.8-.1 1.5.3 1.5.5 0 1.1-.7 1.5-1.5.3-.8.1-1.5-.3-1.5-.5 0-1.1.7-1.5 1.5zM430.8 575.7c.7.3 1.6.2 1.9-.1.4-.3-.2-.6-1.3-.5-1.1 0-1.4.3-.6.6zM440 575.9c0 .6-.8.7-1.7.4-1.1-.4-.3.9 1.6 3 1.9 2 3.6 3.5 3.8 3.4.6-.6-1-4.7-1.9-4.7-.5 0-.7-.4-.3-.9.3-.5.1-1.2-.5-1.6-.5-.3-1-.2-1 .4zM529.8 576.1c-.6 1.6 1.8 4.4 2.6 3 .3-.4-.1-1.6-.8-2.6-1-1.4-1.4-1.5-1.8-.4zM558.5 576c-.4.6-.4 1-.1 1 .2 0 1.1.3 2 .6.9.3 1.6.2 1.6-.4 0-1.4-2.8-2.3-3.5-1.2zM444.8 579.5c.5 2.6 1.6 3.2 2.7 1.5.7-1.1-1.1-4-2.5-4-.4 0-.5 1.1-.2 2.5zM104.6 579.3c.3 1 .9 1.5 1.2 1.2.3-.3 0-1.1-.7-1.8-1-.9-1.1-.8-.5.6zM536 580c-.8.5-1.2 1.2-.9 1.5.4.3 1.2-.1 1.9-1 1.4-1.7 1.1-1.9-1-.5zM218 581c0 .5.5 1 1 1 .6 0 1-.5 1-1 0-.6-.4-1-1-1-.5 0-1 .4-1 1zM265 581c0 .5.5 1 1.1 1 .5 0 .7-.5.4-1-.3-.6-.8-1-1.1-1-.2 0-.4.4-.4 1zM500.8 580.7c.7.3 1.6.2 1.9-.1.4-.3-.2-.6-1.3-.5-1.1 0-1.4.3-.6.6zM408.9 583.5c0 .5-.2 1.8-.4 2.8-.3 1.5-.1 1.6 1.3.5 1.3-1.1 1.5-1.1.9.4-.5 1.5-.4 1.6 1.3.5 1.1-.6 2-1.5 2-2 0-.4-.4-.5-1-.2-.5.3-1 .1-1-.4 0-.6.5-1.1 1-1.1.6 0 1-.4 1-1 0-1.3-5-.9-5.1.5zM476.7 583.9c.3 1.2.9 2.1 1.4 2.1 1.4 0 1.1-1.6-.5-2.9-1.2-1-1.3-.8-.9.8zM447 583.9c0 .5.5 1.3 1 1.6.6.3 1 .2 1-.4 0-.5-.4-1.3-1-1.6-.5-.3-1-.2-1 .4zM473 585c0 .6.7 1 1.5 1s1.5-.2 1.5-.4-.7-.6-1.5-1c-.8-.3-1.5-.1-1.5.4zM541.8 584.7c.6.2 1.8.2 2.5 0 .6-.3.1-.5-1.3-.5-1.4 0-1.9.2-1.2.5zM255 588c0 .5.5 1 1.2 1 .6 0 .3.9-.7 2s-2.5 2-3.4 2c-1.3 0-1.3.2-.2.9.9.6.9 1 .2 1.2-.6.2 1.1.4 3.7.4 3.7.1 4.6-.2 3.8-1.1-.6-.6-1.7-.9-2.3-.7-.7.3-1.3 0-1.3-.6s.9-1.1 1.9-1.1c3.1 0 3.3-1.6.6-3.4-2.8-1.9-3.5-2-3.5-.6zM394.6 588.5c-.3.8-.3 1.5 0 1.5s1.2-.7 2-1.5c1.3-1.3 1.3-1.5.1-1.5-.8 0-1.7.7-2.1 1.5zM300.5 589c-1.6.7-1.7.9-.3.9.9.1 2-.4 2.3-.9.7-1.1.7-1.1-2 0zM359.5 589c-.3.5-.1 1 .4 1 .6 0 1.1-.5 1.1-1 0-.6-.2-1-.4-1-.3 0-.8.4-1.1 1zM364.5 590.1c-.4.6-.5 1.2-.2 1.5.2.3.7-.2 1-1.1.7-1.7.1-2-.8-.4z"/></svg>